<?xml version="1.0" encoding="UTF-8"?><!DOCTYPE svg PUBLIC "-//W3C//DTD SVG 1.1//EN" "http://www.w3.org/Graphics/SVG/1.1/DTD/svg11.dtd"><svg xmlns="http://www.w3.org/2000/svg"><symbol id="arrow-down" viewBox="0 0 14 20">
    <path d="M7 18.987l-5.803-5.913M7 18.987l5.797-5.687M7 18.987L7.18.015"/>
</symbol><symbol id="back" viewBox="0 0 443.52 443.52">
    <path d="M143.492 221.863L336.226 29.129c6.663-6.664 6.663-17.468 0-24.132-6.665-6.662-17.468-6.662-24.132 0l-204.8 204.8c-6.662 6.664-6.662 17.468 0 24.132l204.8 204.8c6.78 6.548 17.584 6.36 24.132-.42 6.387-6.614 6.387-17.099 0-23.712L143.492 221.863z"/>
</symbol><symbol id="close" viewBox="0 0 100 100">
    <path d="M77.6 21.1l-28 28.1-28.1-28.1-1.9 1.9 28 28.1-28 28.1 1.9 1.9L49.6 53l28 28.1 2-1.9-28.1-28.1L79.6 23z"/>
</symbol><symbol id="fb" viewBox="0 0 512 512">
    <path d="M452 0H60C26.916 0 0 26.916 0 60v392c0 33.084 26.916 60 60 60h392c33.084 0 60-26.916 60-60V60c0-33.084-26.916-60-60-60zm20 452c0 11.028-8.972 20-20 20H338V309h61.79L410 247h-72v-43c0-16.975 13.025-30 30-30h41v-62h-41c-50.923 0-91.978 41.25-91.978 92.174V247H216v62h60.022v163H60c-11.028 0-20-8.972-20-20V60c0-11.028 8.972-20 20-20h392c11.028 0 20 8.972 20 20v392z"/>
</symbol><symbol id="inst" viewBox="0 0 511 511.9">
    <path d="M510.95 150.5c-1.2-27.2-5.598-45.898-11.9-62.102-6.5-17.199-16.5-32.597-29.6-45.398-12.802-13-28.302-23.102-45.302-29.5-16.296-6.3-34.898-10.7-62.097-11.898C334.648.3 325.949 0 256.449 0s-78.199.3-105.5 1.5c-27.199 1.2-45.898 5.602-62.097 11.898-17.204 6.5-32.602 16.5-45.403 29.602-13 12.8-23.097 28.3-29.5 45.3-6.3 16.302-10.699 34.9-11.898 62.098C.75 177.801.449 186.5.449 256s.301 78.2 1.5 105.5c1.2 27.2 5.602 45.898 11.903 62.102 6.5 17.199 16.597 32.597 29.597 45.398 12.801 13 28.301 23.102 45.301 29.5 16.3 6.3 34.898 10.7 62.102 11.898 27.296 1.204 36 1.5 105.5 1.5s78.199-.296 105.5-1.5c27.199-1.199 45.898-5.597 62.097-11.898a130.934 130.934 0 0074.903-74.898c6.296-16.301 10.699-34.903 11.898-62.102 1.2-27.3 1.5-36 1.5-105.5s-.102-78.2-1.3-105.5zm-46.098 209c-1.102 25-5.301 38.5-8.801 47.5-8.602 22.3-26.301 40-48.602 48.602-9 3.5-22.597 7.699-47.5 8.796-27 1.204-35.097 1.5-103.398 1.5s-76.5-.296-103.403-1.5c-25-1.097-38.5-5.296-47.5-8.796C94.551 451.5 84.45 445 76.25 436.5c-8.5-8.3-15-18.3-19.102-29.398-3.5-9-7.699-22.602-8.796-47.5-1.204-27-1.5-35.102-1.5-103.403s.296-76.5 1.5-103.398c1.097-25 5.296-38.5 8.796-47.5C61.25 94.199 67.75 84.1 76.352 75.898c8.296-8.5 18.296-15 29.398-19.097 9-3.5 22.602-7.7 47.5-8.801 27-1.2 35.102-1.5 103.398-1.5 68.403 0 76.5.3 103.403 1.5 25 1.102 38.5 5.3 47.5 8.8 11.097 4.098 21.199 10.598 29.398 19.098 8.5 8.301 15 18.301 19.102 29.403 3.5 9 7.699 22.597 8.8 47.5 1.2 27 1.5 35.097 1.5 103.398s-.3 76.301-1.5 103.301zm0 0"/>
    <path d="M256.45 124.5c-72.598 0-131.5 58.898-131.5 131.5s58.902 131.5 131.5 131.5c72.6 0 131.5-58.898 131.5-131.5s-58.9-131.5-131.5-131.5zm0 216.8c-47.098 0-85.302-38.198-85.302-85.3s38.204-85.3 85.301-85.3c47.102 0 85.301 38.198 85.301 85.3s-38.2 85.3-85.3 85.3zm0 0M423.852 119.3c0 16.954-13.747 30.7-30.704 30.7-16.953 0-30.699-13.746-30.699-30.7 0-16.956 13.746-30.698 30.7-30.698 16.956 0 30.703 13.742 30.703 30.699zm0 0"/>
</symbol><symbol id="logo" viewBox="0 0 137 47">
    <path d="M.9 41.8H1c.093 0 .18-.04.26-.12.08-.08.147-.173.2-.28a1.08 1.08 0 00.14-.34c.027-.133.04-.253.04-.36V30.06c0-.093-.013-.2-.04-.32a1.08 1.08 0 00-.14-.34.668.668 0 00-.22-.28.384.384 0 00-.28-.12h-.1v-.2h3.28c1.24 0 2.207.273 2.9.82.707.547 1.06 1.273 1.06 2.18 0 .387-.067.733-.2 1.04-.133.307-.307.58-.52.82-.2.24-.42.447-.66.62-.24.16-.467.293-.68.4.56.107 1.027.287 1.4.54.373.253.673.547.9.88.24.32.407.667.5 1.04.093.373.14.74.14 1.1 0 .693-.127 1.28-.38 1.76a3.417 3.417 0 01-1.02 1.16 4.166 4.166 0 01-1.44.64 6.82 6.82 0 01-1.66.2H.9v-.2zm6.72-3.44c-.107-1.027-.453-1.82-1.04-2.38-.587-.56-1.413-.84-2.48-.84H2.98v6.2h1.16c1.08 0 1.927-.24 2.54-.72.627-.493.94-1.173.94-2.04v-.22zm-.82-6.38c-.04-.773-.313-1.387-.82-1.84-.493-.453-1.16-.68-2-.68h-1v5.04h1.04c.56 0 1.013-.073 1.36-.22.36-.147.647-.333.86-.56.213-.24.36-.5.44-.78.08-.28.12-.553.12-.82v-.14zm5.085 9.82h.1c.107 0 .2-.033.28-.1.08-.08.147-.173.2-.28.067-.107.114-.22.14-.34.04-.12.06-.233.06-.34v-10.7c0-.093-.02-.2-.06-.32a1.082 1.082 0 00-.14-.34.796.796 0 00-.2-.26.384.384 0 00-.28-.12h-.1v-.2h7.7v1.86h-.2a1.302 1.302 0 00-.36-.8c-.213-.24-.546-.36-1-.36h-4.02v5.06h3.32c.307 0 .56-.093.76-.28.213-.187.32-.407.32-.66h.2v2.5h-.2c0-.24-.1-.447-.3-.62-.2-.173-.46-.26-.78-.26h-3.32v6.06h4.38c.253 0 .473-.06.66-.18.187-.12.34-.26.46-.42.134-.173.227-.353.28-.54.067-.2.1-.367.1-.5h.2V42h-8.2v-.2zm17.283-12.48c-.986 0-1.846.18-2.58.54-.72.347-1.32.807-1.8 1.38-.48.56-.84 1.193-1.08 1.9a6.849 6.849 0 00-.34 2.1c0 .787.154 1.56.46 2.32a6.775 6.775 0 001.26 2 6.815 6.815 0 001.9 1.4c.72.347 1.5.52 2.34.52.24 0 .52-.027.84-.08.334-.053.66-.153.98-.3.32-.16.614-.38.88-.66.28-.28.494-.647.64-1.1h.2v2.22c-.2 0-.413.027-.64.08l-.72.18c-.346.093-.733.18-1.16.26a6.94 6.94 0 01-1.32.12c-1.16 0-2.18-.2-3.06-.6-.88-.4-1.613-.92-2.2-1.56a6.465 6.465 0 01-1.32-2.16 7.205 7.205 0 01-.44-2.46c0-.827.147-1.647.44-2.46.293-.813.74-1.54 1.34-2.18.6-.653 1.354-1.18 2.26-1.58.907-.4 1.974-.6 3.2-.6.44 0 .833.04 1.18.12.36.08.68.16.96.24.2.067.38.12.54.16.174.027.34.04.5.04v2.22h-.2c-.08-.413-.227-.753-.44-1.02a2.171 2.171 0 00-.76-.64 2.982 2.982 0 00-.92-.3 4.6 4.6 0 00-.94-.1zM43.77 41.8h.1c.093 0 .18-.033.26-.1.08-.08.147-.173.2-.28.067-.12.113-.24.14-.36.027-.133.04-.253.04-.36v-5.44h-6.4v5.44c0 .107.013.227.04.36a1.465 1.465 0 00.3.62c.08.08.173.12.28.12h.1v.2h-2.8v-.2h.1c.093 0 .18-.033.26-.1.08-.08.147-.173.2-.28.067-.12.113-.24.14-.36.027-.133.04-.253.04-.36V30.04c0-.093-.013-.2-.04-.32a1.474 1.474 0 00-.12-.34.796.796 0 00-.2-.26.384.384 0 00-.28-.12h-.1v-.2h2.8v.2h-.1c-.107 0-.2.04-.28.12a.795.795 0 00-.2.26c-.04.107-.073.22-.1.34-.027.12-.04.227-.04.32v4.52h6.4v-4.52c0-.093-.013-.2-.04-.32a1.474 1.474 0 00-.12-.34.796.796 0 00-.2-.26.384.384 0 00-.28-.12h-.1v-.2h2.8v.2h-.1c-.107 0-.2.04-.28.12a.795.795 0 00-.2.26c-.04.107-.073.22-.1.34-.027.12-.04.227-.04.32V40.7c0 .107.013.227.04.36.04.12.087.233.14.34.053.107.113.2.18.28.08.08.167.12.26.12h.1v.2h-2.8v-.2zm13.302 0h.1c.32 0 .48-.147.48-.44 0-.107-.02-.22-.06-.34l-1.8-4.86h-3.5l-1.74 4.78a.857.857 0 00-.06.3c0 .173.046.313.14.42a.42.42 0 00.3.14h.1v.2h-2.22v-.2h.1c.173 0 .34-.1.5-.3.173-.213.313-.46.42-.74l4.58-12.2 4.48 12.08c.093.267.22.527.38.78.173.253.393.38.66.38h.1v.2h-2.96v-.2zm-4.58-6.32h3.08l-1.54-4.18-1.54 4.18zm16.332 6.32h.1c.093 0 .18-.04.26-.12.08-.08.146-.173.2-.28.066-.107.113-.22.14-.34.026-.133.04-.253.04-.36V30.06c0-.093-.014-.2-.04-.32a1.082 1.082 0 00-.14-.34.669.669 0 00-.22-.28.384.384 0 00-.28-.12h-.1v-.2h3.28c1.24 0 2.206.273 2.9.82.706.547 1.06 1.273 1.06 2.18 0 .387-.067.733-.2 1.04-.134.307-.307.58-.52.82-.2.24-.42.447-.66.62-.24.16-.467.293-.68.4.56.107 1.026.287 1.4.54.373.253.673.547.9.88.24.32.406.667.5 1.04.093.373.14.74.14 1.1 0 .693-.127 1.28-.38 1.76a3.418 3.418 0 01-1.02 1.16 4.167 4.167 0 01-1.44.64c-.534.133-1.087.2-1.66.2h-3.58v-.2zm6.72-3.44c-.107-1.027-.454-1.82-1.04-2.38-.587-.56-1.414-.84-2.48-.84h-1.12v6.2h1.16c1.08 0 1.926-.24 2.54-.72.626-.493.94-1.173.94-2.04v-.22zm-.82-6.38c-.04-.773-.314-1.387-.82-1.84-.494-.453-1.16-.68-2-.68h-1v5.04h1.04c.56 0 1.013-.073 1.36-.22.36-.147.646-.333.86-.56.213-.24.36-.5.44-.78.08-.28.12-.553.12-.82v-.14zm11.422-2.66c-.987 0-1.847.18-2.58.54-.72.347-1.32.807-1.8 1.38-.48.56-.84 1.193-1.08 1.9a6.846 6.846 0 00-.34 2.1c0 .787.153 1.56.46 2.32a6.775 6.775 0 001.26 2 6.815 6.815 0 001.9 1.4c.72.347 1.5.52 2.34.52.24 0 .52-.027.84-.08.333-.053.66-.153.98-.3.32-.16.613-.38.88-.66.28-.28.493-.647.64-1.1h.2v2.22c-.2 0-.414.027-.64.08l-.72.18c-.347.093-.734.18-1.16.26a6.94 6.94 0 01-1.32.12c-1.16 0-2.18-.2-3.06-.6-.88-.4-1.614-.92-2.2-1.56a6.462 6.462 0 01-1.32-2.16 7.205 7.205 0 01-.44-2.46c0-.827.146-1.647.44-2.46.293-.813.74-1.54 1.34-2.18.6-.653 1.353-1.18 2.26-1.58.906-.4 1.973-.6 3.2-.6.44 0 .833.04 1.18.12.36.08.68.16.96.24.2.067.38.12.54.16.173.027.34.04.5.04v2.22h-.2c-.08-.413-.227-.753-.44-1.02a2.172 2.172 0 00-.76-.64 2.983 2.983 0 00-.92-.3 4.6 4.6 0 00-.94-.1zm6.62 12.48h.1c.107 0 .2-.033.28-.1.08-.08.147-.173.2-.28.067-.107.114-.22.14-.34.04-.12.06-.233.06-.34v-10.7c0-.093-.02-.2-.06-.32a1.077 1.077 0 00-.14-.34.795.795 0 00-.2-.26.384.384 0 00-.28-.12h-.1v-.2h7.701v1.86h-.2a1.303 1.303 0 00-.36-.8c-.214-.24-.547-.36-1-.36h-4.02v5.06h3.32c.306 0 .56-.093.76-.28.213-.187.32-.407.32-.66h.2v2.5h-.2c0-.24-.1-.447-.3-.62-.2-.173-.46-.26-.78-.26h-3.32v6.06h4.38c.253 0 .473-.06.66-.18a1.755 1.755 0 00.74-.96c.066-.2.1-.367.1-.5h.2V42h-8.2v-.2zm13.688 0h.1v.2h-2.88v-.2h.1c.106 0 .2-.033.28-.1.08-.08.146-.173.2-.28.066-.107.113-.22.14-.34.026-.12.04-.233.04-.34v-10.7c0-.093-.014-.2-.04-.32a1.103 1.103 0 00-.14-.34.805.805 0 00-.2-.26.385.385 0 00-.28-.12h-.1v-.2h7.7v2.12h-.2c0-.48-.107-.833-.32-1.06-.2-.24-.52-.36-.96-.36h-4.1v11.24a1.55 1.55 0 00.16.68c.066.107.14.2.22.28.08.067.173.1.28.1zm16.169-.5v2.5h-.2a2.13 2.13 0 00-.14-.58 2.233 2.233 0 00-.34-.6 1.88 1.88 0 00-.48-.44 1.123 1.123 0 00-.62-.18h-9.22c-.227 0-.433.06-.62.18a2.733 2.733 0 00-.5.46 3.318 3.318 0 00-.34.6c-.08.213-.127.4-.14.56h-.2v-2.5h.88c.427 0 .727-.247.9-.74l4.6-12.06 4.64 12c.093.2.22.387.38.56.16.16.347.24.56.24h.84zm-10.58 0h7.7l-3.86-9.94-3.84 9.94zm21.046.5h.1c.32 0 .48-.147.48-.44 0-.107-.02-.22-.06-.34l-1.8-4.86h-3.5l-1.74 4.78a.857.857 0 00-.06.3c0 .173.046.313.14.42a.42.42 0 00.3.14h.1v.2h-2.22v-.2h.1c.173 0 .34-.1.5-.3.173-.213.313-.46.42-.74l4.58-12.2 4.48 12.08c.093.267.22.527.38.78.173.253.393.38.66.38h.1v.2h-2.96v-.2zm-4.58-6.32h3.08l-1.54-4.18-1.54 4.18z"/>
    <path d="M72.753 9c0 2.33-1.133 4.474-2.311 6.067a17.308 17.308 0 01-2.008 2.26 17.32 17.32 0 01-2.008-2.261C65.25 13.475 64.116 11.33 64.116 9c0-2.33 1.134-4.474 2.312-6.067a17.323 17.323 0 012.007-2.26 17.312 17.312 0 012.008 2.261C71.62 4.525 72.753 6.67 72.753 9z"/>
    <path d="M66.557 8.78c1.461 1.667 2.033 4.098 2.224 6.182a20.83 20.83 0 01.037 3.268 14.035 14.035 0 01-2.864-.042c-1.826-.219-3.956-.871-5.417-2.538-1.46-1.668-2.032-4.098-2.224-6.183a20.847 20.847 0 01-.037-3.268 14.028 14.028 0 012.864.042c1.826.219 3.956.871 5.417 2.538zM71.65 8.78c-1.462 1.667-2.033 4.098-2.225 6.182a20.83 20.83 0 00-.037 3.268 14.035 14.035 0 002.864-.042c1.826-.219 3.956-.871 5.417-2.538 1.46-1.668 2.032-4.098 2.224-6.183A20.847 20.847 0 0079.93 6.2a14.028 14.028 0 00-2.864.042c-1.826.219-3.956.871-5.417 2.538zM47 12H2M136 12H90"/>
</symbol><symbol id="next" viewBox="0 0 512.002 512.002">
    <path d="M388.425 241.951L151.609 5.79c-7.759-7.733-20.321-7.72-28.067.04-7.74 7.759-7.72 20.328.04 28.067l222.72 222.105-222.728 222.104c-7.759 7.74-7.779 20.301-.04 28.061a19.8 19.8 0 0014.057 5.835 19.79 19.79 0 0014.017-5.795l236.817-236.155c3.737-3.718 5.834-8.778 5.834-14.05s-2.103-10.326-5.834-14.051z"/>
</symbol><symbol id="vk" viewBox="0 0 512 512">
    <path d="M376 16H136C69.726 16 16 69.726 16 136v240c0 66.274 53.726 120 120 120h240c66.274 0 120-53.726 120-120V136c0-66.274-53.726-120-120-120zm34.852 331.552l-44.822.631s-9.629 1.904-22.297-6.791c-16.759-11.503-32.571-41.395-44.883-37.496-12.501 3.962-12.104 30.852-12.104 30.852s.107 5.97-2.746 9.028c-3.087 3.334-9.144 4.225-9.144 4.225h-20.054s-44.254 2.439-83.244-38.117c-42.497-44.242-80.041-132.108-80.041-132.108s-2.158-5.799.188-8.591c2.644-3.118 9.84-3.359 9.84-3.359l47.943-.304s4.532.744 7.764 3.114c2.663 1.95 4.152 5.59 4.152 5.59s7.76 19.599 18.016 37.305c20.032 34.604 29.361 42.171 36.181 38.464 9.92-5.412 6.943-48.897 6.943-48.897s.19-15.806-4.991-22.825c-4.008-5.452-11.559-7.044-14.893-7.485-2.707-.354 1.721-6.623 7.469-9.432 8.617-4.211 23.866-4.464 41.864-4.273 14.03.146 18.055 1.025 23.553 2.347 16.529 3.981 10.929 19.384 10.929 56.336 0 11.82-2.144 28.484 6.394 33.995 3.674 2.371 12.669.357 35.134-37.764 10.654-18.072 18.645-39.322 18.645-39.322s1.74-3.774 4.45-5.406c2.786-1.656 6.521-1.15 6.521-1.15l50.426-.296s15.16-1.804 17.615 5.028c2.582 7.168-5.663 23.937-26.282 51.391-33.854 45.083-37.626 40.85-9.521 66.923 26.848 24.901 32.428 37.018 33.328 38.523 11.114 18.418-12.333 19.864-12.333 19.864z"/>
</symbol><symbol id="whatsapp" viewBox="0 0 24 24">
    <path d="M17.507 14.307l-.009.075c-2.199-1.096-2.429-1.242-2.713-.816-.197.295-.771.964-.944 1.162-.175.195-.349.21-.646.075-.3-.15-1.263-.465-2.403-1.485-.888-.795-1.484-1.77-1.66-2.07-.293-.506.32-.578.878-1.634.1-.21.049-.375-.025-.524-.075-.15-.672-1.62-.922-2.206-.24-.584-.487-.51-.672-.51-.576-.05-.997-.042-1.368.344-1.614 1.774-1.207 3.604.174 5.55 2.714 3.552 4.16 4.206 6.804 5.114.714.227 1.365.195 1.88.121.574-.091 1.767-.721 2.016-1.426.255-.705.255-1.29.18-1.425-.074-.135-.27-.21-.57-.345z"/>
    <path d="M20.52 3.449C12.831-3.984.106 1.407.101 11.893c0 2.096.549 4.14 1.595 5.945L0 24l6.335-1.652c7.905 4.27 17.661-1.4 17.665-10.449 0-3.176-1.24-6.165-3.495-8.411zm1.482 8.417c-.006 7.633-8.385 12.4-15.012 8.504l-.36-.214-3.75.975 1.005-3.645-.239-.375c-4.124-6.565.614-15.145 8.426-15.145a9.865 9.865 0 017.021 2.91 9.788 9.788 0 012.909 6.99z"/>
</symbol></svg>