<?xml version="1.0" standalone="no"?>
<!DOCTYPE svg PUBLIC "-//W3C//DTD SVG 20010904//EN"
 "http://www.w3.org/TR/2001/REC-SVG-20010904/DTD/svg10.dtd">
<svg version="1.0" xmlns="http://www.w3.org/2000/svg"
 width="400.000000pt" height="400.000000pt" viewBox="0 0 400.000000 400.000000"
 preserveAspectRatio="xMidYMid meet">
<metadata>
Created by potrace 1.11, written by Peter Selinger 2001-2013
</metadata>
<g transform="translate(0.000000,400.000000) scale(0.100000,-0.100000)"
fill="#000000" stroke="none">
<path d="M1907 3814 c-1 -1 -36 -4 -77 -8 -81 -6 -95 -8 -210 -32 -84 -17
-171 -43 -183 -54 -4 -3 23 -19 60 -33 167 -66 450 -220 749 -407 286 -179
599 -371 694 -425 281 -160 496 -260 691 -319 127 -39 123 -41 88 60 -181 523
-597 938 -1124 1120 -81 28 -204 61 -261 69 -21 3 -64 10 -94 14 -30 5 -77 10
-105 11 -73 4 -225 6 -228 4z"/>
<path d="M908 3448 c-86 -64 -256 -228 -322 -310 -20 -27 -36 -48 -34 -48 86
-3 212 -10 238 -14 19 -3 58 -7 85 -10 287 -31 700 -144 1190 -328 783 -293
1103 -393 1355 -423 25 -2 68 -7 95 -11 65 -7 242 -6 266 1 11 4 17 10 15 14
-3 4 -7 20 -10 36 -6 35 -17 42 -75 49 -52 7 -116 20 -210 43 -36 8 -72 16
-80 18 -96 20 -409 124 -550 182 -328 135 -501 220 -831 410 -256 147 -486
261 -690 343 -109 44 -315 110 -341 110 -9 0 -55 -28 -101 -62z"/>
<path d="M545 2673 c-57 -3 -201 -21 -227 -29 -17 -5 -67 -144 -83 -229 -25
-130 -34 -189 -31 -192 2 -2 31 3 65 12 76 19 153 35 211 41 25 3 51 7 59 10
76 25 609 25 846 0 17 -2 62 -7 100 -11 39 -3 77 -8 85 -10 8 -2 42 -7 75 -10
33 -4 67 -8 75 -10 8 -2 38 -7 65 -10 28 -4 57 -8 65 -10 8 -3 47 -9 85 -15
39 -5 81 -12 95 -15 14 -2 41 -7 60 -9 20 -2 47 -7 60 -10 14 -3 47 -8 74 -11
27 -3 52 -8 55 -9 3 -2 29 -6 56 -10 28 -3 61 -8 75 -10 75 -14 150 -26 190
-31 25 -3 56 -8 70 -10 32 -6 133 -18 235 -29 290 -32 532 -24 725 24 114 28
174 54 178 77 3 19 0 20 -50 10 -98 -19 -622 -13 -811 9 -76 9 -212 26 -237
30 -14 2 -43 6 -65 9 -69 11 -247 45 -315 62 -36 8 -76 17 -90 19 -14 3 -39 9
-57 15 -17 5 -43 12 -57 15 -15 2 -135 38 -269 78 -361 110 -574 167 -748 200
-88 16 -147 25 -209 31 -30 4 -62 8 -70 10 -8 2 -62 7 -120 11 -58 3 -107 7
-110 8 -3 0 -27 0 -55 -1z"/>
<path d="M3760 1976 c-54 -22 -243 -81 -291 -89 -13 -3 -53 -12 -89 -20 -36
-8 -108 -22 -160 -31 -52 -9 -104 -18 -116 -20 -12 -2 -45 -7 -75 -11 -30 -3
-65 -8 -79 -10 -14 -2 -54 -7 -90 -10 -36 -3 -72 -8 -80 -10 -97 -25 -780 -25
-995 0 -29 3 -131 12 -225 20 -292 23 -744 24 -880 1 -14 -2 -49 -7 -78 -10
-86 -10 -228 -44 -305 -74 l-72 -28 3 -45 c7 -103 96 -353 184 -513 51 -92 55
-96 75 -66 22 33 128 137 176 174 89 68 199 127 337 181 94 37 314 101 380
111 19 3 51 9 70 14 35 8 144 27 210 35 223 29 309 36 565 50 97 6 180 11 315
20 47 3 117 8 155 10 73 5 165 13 225 20 19 2 59 7 89 10 30 4 63 9 75 11 12
2 41 7 66 10 25 3 53 8 62 10 10 3 30 7 45 10 105 18 278 76 387 131 82 41
176 110 176 129 0 8 -1 14 -2 14 -2 -1 -28 -11 -58 -24z"/>
<path d="M3735 1780 c-230 -159 -693 -331 -1155 -429 -52 -11 -111 -23 -130
-26 -19 -3 -60 -10 -90 -15 -82 -14 -110 -18 -170 -25 -30 -3 -66 -8 -80 -10
-14 -2 -50 -7 -80 -10 -30 -3 -82 -10 -115 -15 -33 -5 -78 -12 -100 -15 -364
-54 -705 -162 -886 -281 -109 -72 -178 -165 -179 -239 0 -31 28 -61 135 -146
214 -170 563 -326 794 -355 25 -3 53 -7 61 -9 68 -18 293 -25 415 -14 246 24
409 69 645 177 19 8 80 43 135 75 452 270 770 732 859 1252 9 51 18 135 14
134 -1 -1 -34 -23 -73 -49z"/>
</g>
</svg>
