<?xml version="1.0" standalone="no"?>
<!DOCTYPE svg PUBLIC "-//W3C//DTD SVG 20010904//EN"
 "http://www.w3.org/TR/2001/REC-SVG-20010904/DTD/svg10.dtd">
<svg version="1.0" xmlns="http://www.w3.org/2000/svg"
 width="400.000000pt" height="400.000000pt" viewBox="0 0 400.000000 400.000000"
 preserveAspectRatio="xMidYMid meet">
<metadata>
Created by potrace 1.11, written by Peter Selinger 2001-2013
</metadata>
<g transform="translate(0.000000,400.000000) scale(0.100000,-0.100000)"
fill="#000000" stroke="none">
<path d="M1955 3778 c-62 -196 -54 -384 31 -708 20 -74 49 -184 64 -245 76
-291 62 -473 -56 -706 -45 -90 -172 -283 -203 -309 -4 -3 -26 -30 -51 -60 -24
-30 -133 -145 -241 -255 -224 -227 -226 -230 -267 -310 -88 -173 -97 -420 -25
-673 8 -30 13 -55 10 -58 -7 -8 -103 100 -131 149 -63 108 -101 364 -71 487
32 138 113 287 257 480 58 77 148 175 328 360 188 192 251 286 279 420 14 66
15 217 2 286 -28 145 -122 288 -253 385 -31 23 -33 20 -18 -31 36 -124 29
-315 -16 -445 -53 -154 -117 -270 -237 -430 -33 -44 -63 -82 -66 -85 -3 -3
-42 -45 -86 -95 -44 -49 -90 -101 -104 -115 -41 -42 -126 -161 -164 -230 -141
-254 -173 -549 -90 -820 89 -292 354 -545 647 -620 84 -21 258 -26 348 -10
138 25 296 93 430 185 l76 53 40 -23 c112 -64 245 -91 355 -74 28 5 82 24 121
43 153 74 263 226 310 426 36 153 7 538 -52 690 -7 18 -11 21 -16 10 -5 -15
-54 -191 -61 -220 -10 -45 -81 -242 -103 -285 -78 -156 -224 -284 -428 -376
l-67 -29 26 32 c71 89 220 304 271 391 109 185 196 391 214 507 9 55 8 218 -1
283 -28 204 -149 546 -286 812 l-51 100 5 -55 c2 -30 7 -84 10 -120 3 -36 8
-96 10 -135 5 -82 6 -440 0 -505 -2 -25 -6 -81 -9 -125 -4 -44 -9 -91 -11
-105 -2 -14 -7 -47 -9 -75 -8 -69 -34 -206 -58 -300 -11 -44 -21 -87 -23 -95
-26 -119 -148 -382 -224 -481 -45 -60 -137 -148 -144 -138 -2 2 -8 40 -14 84
-7 44 -21 101 -33 127 -25 56 -89 114 -144 129 -53 14 -143 13 -189 -3 l-38
-14 41 -18 c54 -24 105 -78 123 -129 53 -157 -74 -339 -228 -324 -153 14 -278
155 -313 352 -8 50 -8 180 2 243 15 100 112 209 304 342 68 47 171 118 230
159 247 172 389 317 475 486 61 121 123 391 126 546 4 203 -59 362 -206 519
-98 105 -164 218 -221 381 -35 100 -70 254 -79 348 -11 123 -15 125 -48 19z"/>
</g>
</svg>
