<svg xmlns="http://www.w3.org/2000/svg" width="44" height="44" viewBox="0 0 44 44">
  <path id="icon" d="M1169.25,4878c-.424,0-.847.026-1.268.064-.154.014-.306.036-.459.056-.258.031-.513.07-.768.117q-.282.052-.552.114c-.211.048-.42.1-.63.162s-.4.109-.591.172c-.177.058-.349.127-.524.192a14.2,14.2,0,0,0-1.343.583c-.086.042-.176.081-.26.127-.228.121-.449.255-.671.387-.121.075-.244.145-.365.223-.215.137-.422.285-.628.433-.062.046-.128.086-.192.132a13.736,13.736,0,0,0-22,10.986c0,12.444,8,23.7,21.406,30.113a1.36,1.36,0,0,0,1.188,0c13.4-6.411,21.406-17.668,21.406-30.113A13.765,13.765,0,0,0,1169.25,4878Zm-8.25,41.1c-12.065-5.989-19.25-16.17-19.25-27.347a10.971,10.971,0,0,1,17.19-9.067,13.672,13.672,0,0,0-3.44,9.067,1.375,1.375,0,0,0,2.75,0,10.963,10.963,0,0,1,3.724-8.227c.211-.189.431-.366.654-.537.051-.036.1-.075.152-.113.219-.159.443-.312.673-.454.063-.04.126-.08.191-.117.221-.133.448-.257.678-.373.079-.04.161-.078.242-.117.22-.1.443-.2.67-.292.1-.04.2-.076.3-.113.214-.077.428-.149.646-.213.133-.037.262-.07.395-.1.2-.049.392-.1.594-.14.181-.033.365-.058.548-.083.156-.024.311-.05.47-.066.349-.033.7-.053,1.061-.053a11.012,11.012,0,0,1,11,11C1180.25,4902.927,1173.066,4913.108,1161,4919.1Zm8.25-35.6a1.375,1.375,0,0,0,0,2.75,5.505,5.505,0,0,1,5.5,5.5,1.375,1.375,0,0,0,2.75,0A8.259,8.259,0,0,0,1169.25,4883.5Z" transform="translate(-1139 -4878)" fill="#c7b299"/>
</svg>
