<svg xmlns="http://www.w3.org/2000/svg" width="44" height="44" viewBox="0 0 44 44">
  <path id="icon" d="M559.937,4908.25c5.688,0,10.313-5.629,10.313-12.546s-4.624-12.547-10.312-12.547a9.445,9.445,0,0,0-7.395,3.788,14.013,14.013,0,0,0-2.918,8.759C549.625,4902.622,554.25,4908.25,559.937,4908.25Zm0-22.344c4.169,0,7.563,4.395,7.563,9.8s-3.393,9.8-7.562,9.8-7.562-4.394-7.565-9.8S555.765,4885.906,559.937,4885.906Zm8.661,20.969a1.375,1.375,0,1,0,0,2.75,8.537,8.537,0,0,1,8.527,8.528,1.1,1.1,0,0,1-1.1,1.1H543.848a1.1,1.1,0,0,1-1.1-1.1,8.536,8.536,0,0,1,8.524-8.528,1.375,1.375,0,1,0,0-2.75A11.289,11.289,0,0,0,540,4918.153a3.852,3.852,0,0,0,3.848,3.847h32.175a3.853,3.853,0,0,0,3.851-3.847A11.291,11.291,0,0,0,568.6,4906.875Zm-7.656-25.246a6.046,6.046,0,0,1,3.12-.878c4.169,0,7.562,4.4,7.562,9.8a12.448,12.448,0,0,1-.319,2.828,1.373,1.373,0,0,0,1.023,1.652,1.3,1.3,0,0,0,.315.037,1.376,1.376,0,0,0,1.338-1.06,15.3,15.3,0,0,0,.393-3.457c0-6.918-4.625-12.547-10.312-12.547a8.88,8.88,0,0,0-4.518,1.261,1.375,1.375,0,0,0,1.4,2.368ZM573,4901.375a1.375,1.375,0,1,0,0,2.75,8.385,8.385,0,0,1,8.25,8.618,1.059,1.059,0,0,1-.094.448,1.375,1.375,0,1,0,2.514,1.117,3.845,3.845,0,0,0,.33-1.568A11.136,11.136,0,0,0,573,4901.375Z" transform="translate(-540 -4878)" fill="#c7b299"/>
</svg>
