<svg xmlns="http://www.w3.org/2000/svg" width="53.995" height="43.992" viewBox="0 0 53.995 43.992">
  <path id="icon" d="M1385.31,4918.611h-50.619a1.692,1.692,0,0,0,0,3.384h50.619a1.692,1.692,0,0,0,0-3.384Zm-23.623-33.84v-3.384h3.375a1.692,1.692,0,0,0,0-3.384h-10.124a1.692,1.692,0,0,0,0,3.384h3.375s-.012,3.523,0,3.384a27.1,27.1,0,0,0-25.31,27.072v1.692a1.69,1.69,0,0,0,1.688,1.692h50.619a1.691,1.691,0,0,0,1.688-1.692v-1.692A27.1,27.1,0,0,0,1361.688,4884.771Zm-25.309,27.072a23.623,23.623,0,1,1,47.245,0Z" transform="translate(-1333.003 -4878.003)" fill="#c7b299"/>
</svg>
