<svg xmlns="http://www.w3.org/2000/svg" width="43.992" height="43.992" viewBox="0 0 43.992 43.992">
  <path id="icon" d="M967.873,4901.374H954.125a1.375,1.375,0,0,0,0,2.75h13.747a1.375,1.375,0,0,0,0-2.75Zm2.749-8.248H951.376a1.375,1.375,0,1,0,0,2.749h19.246a1.375,1.375,0,1,0,0-2.749ZM961,4878c-12.147,0-22,8.616-22,19.246a18.423,18.423,0,0,0,8.248,15.011V4922l9.636-5.847a25.259,25.259,0,0,0,4.112.348c12.149,0,22-8.617,22-19.247S973.148,4878,961,4878Zm0,35.744a22.226,22.226,0,0,1-4.647-.5l-6.473,3.891.087-6.376c-4.962-2.984-8.214-7.917-8.214-13.507,0-9.11,8.617-16.5,19.247-16.5s19.247,7.386,19.247,16.5S971.629,4913.747,961,4913.747Z" transform="translate(-939.003 -4878.003)" fill="#c7b299"/>
</svg>
