<svg xmlns="http://www.w3.org/2000/svg" width="43.567" height="43.566" viewBox="0 0 43.567 43.566">
  <path id="icon" d="M1132.927,1129.85a4.318,4.318,0,0,0-2.605-3.857,4.633,4.633,0,0,1-2.885-6.976,4.162,4.162,0,0,0-5.46-5.459,4.627,4.627,0,0,1-6.972-2.884,4.164,4.164,0,0,0-7.723,0,4.627,4.627,0,0,1-6.972,2.884,4.161,4.161,0,0,0-5.459,5.459,4.637,4.637,0,0,1-2.885,6.976,4.16,4.16,0,0,0,0,7.718,4.632,4.632,0,0,1,2.885,6.972,4.162,4.162,0,0,0,5.459,5.459,4.63,4.63,0,0,1,6.972,2.89,4.167,4.167,0,0,0,7.723,0,4.626,4.626,0,0,1,6.972-2.89,4.162,4.162,0,0,0,5.46-5.459,4.628,4.628,0,0,1,2.885-6.972A4.327,4.327,0,0,0,1132.927,1129.85Zm-21.783,7.992a7.988,7.988,0,1,1,7.984-7.983A7.984,7.984,0,0,1,1111.144,1137.842Z" transform="translate(-1089.36 -1108.067)" fill="#555"/>
</svg>
