<svg xmlns="http://www.w3.org/2000/svg" width="47.6" height="47.602" viewBox="0 0 47.6 47.602">
  <path id="icon" d="M502.011,1119.591l14.268-14.264a1.59,1.59,0,0,1,2.248,2.248l-13.844,13.847-8.576,19.465,3,3,19.468-8.572,13.846-13.845a1.59,1.59,0,1,1,2.249,2.248L520.4,1137.985l-32.867,14.478Zm12.484,12.875a1.6,1.6,0,0,1,0-2.25l13.332-13.332a1.591,1.591,0,0,1,2.25,2.249l-13.332,13.333a1.595,1.595,0,0,1-2.25,0Zm-3.479-3.481a1.591,1.591,0,0,1,0-2.251l13.333-13.332a1.591,1.591,0,0,1,2.25,2.25l-13.333,13.333a1.594,1.594,0,0,1-2.249,0Zm-3.481-3.483a1.59,1.59,0,0,1,0-2.249l13.333-13.331a1.591,1.591,0,0,1,2.25,2.25l-13.333,13.33a1.591,1.591,0,0,1-2.25,0Z" transform="translate(-487.535 -1104.861)" fill="#555"/>
</svg>
