<svg xmlns="http://www.w3.org/2000/svg" width="70.001" height="70.001" viewBox="0 0 70.001 70.001">
  <path id="icon-play" d="M943.83,3699.528a2.06,2.06,0,0,1,2.022-3.59,30.924,30.924,0,1,0-6.7-5.092,2.06,2.06,0,1,1-2.912,2.913,34.815,34.815,0,1,1,7.593,5.769Zm11.23-13.9a2.06,2.06,0,0,1-1.186-1.865v-29.525a2.059,2.059,0,0,1,3.378-1.582l17.715,14.763a2.06,2.06,0,0,1,0,3.164l-17.715,14.763a2.061,2.061,0,0,1-2.192.282Zm2.934-6.262L970.431,3669l-12.437-10.365Z" transform="translate(-925.998 -3633.997)" fill="#fff"/>
</svg>
