<svg xmlns="http://www.w3.org/2000/svg" width="17.991" height="23.996" viewBox="0 0 17.991 23.996">
  <path id="icon-cart" d="M1491,58h-1.5c0-1.657-2.013-3-4.5-3s-4.5,1.344-4.5,3H1479a3,3,0,0,0-3,3V76a3,3,0,0,0,3,3H1491a3,3,0,0,0,3-3V61A3,3,0,0,0,1491,58Zm-6-1.5c1.656,0,3,.464,3,1.5h-6C1482,56.962,1483.343,56.5,1485,56.5Zm7.5,19.5a1.5,1.5,0,0,1-1.5,1.5H1479a1.5,1.5,0,0,1-1.5-1.5V74.5h14.993Zm0-3H1477.5V61a1.5,1.5,0,0,1,1.5-1.5h1.5V64h1.5V59.5h6V64h1.5V59.5h1.5a1.5,1.5,0,0,1,1.5,1.5Z" transform="translate(-1476.003 -54.998)" fill="#fff"/>
</svg>
