<?xml version="1.0" encoding="UTF-8"?><!DOCTYPE svg PUBLIC "-//W3C//DTD SVG 1.1//EN" "http://www.w3.org/Graphics/SVG/1.1/DTD/svg11.dtd"><svg xmlns="http://www.w3.org/2000/svg"><symbol id="burger" viewBox="0 0 12.7 12.7">
    <path d="M2.822 2.822v1.411h7.056v-1.41zm0 2.822v1.412h7.056V5.644zm0 2.823v1.41h7.056v-1.41z"/>
</symbol><symbol id="close" viewBox="0 0 32 32">
    <path d="M28.71 4.71l-1.42-1.42L16 14.59 4.71 3.29 3.29 4.71 14.59 16 3.29 27.29l1.42 1.42L16 17.41l11.29 11.3 1.42-1.42L17.41 16l11.3-11.29z"/>
</symbol><symbol id="double-up-arrow-angles" viewBox="0 0 30.727 30.727">
    <path d="M2.5 19.393a2.498 2.498 0 01-1.768-4.265L15.363.498l14.63 14.629c.978.975.978 2.559 0 3.535s-2.56.979-3.534 0L15.363 7.568 4.267 18.662a2.494 2.494 0 01-1.767.731zm27.494 10.103a2.492 2.492 0 000-3.533l-14.63-14.632-14.63 14.63a2.496 2.496 0 000 3.535c.978.977 2.56.977 3.535 0L15.363 18.4l11.096 11.096a2.493 2.493 0 001.769.732 2.482 2.482 0 001.766-.732z"/>
</symbol><symbol id="dribbble" viewBox="0 0 15.992 15.992">
    <path d="M15.829 9.607a8 8 0 01-.466 1.5 8.1 8.1 0 01-.737 1.36 8.229 8.229 0 01-.976 1.182 8.034 8.034 0 01-2.541 1.713 7.983 7.983 0 01-7.585-.738 8.117 8.117 0 01-1.182-.975 8.225 8.225 0 01-.976-1.182 8.1 8.1 0 01-.737-1.36 8.014 8.014 0 010-6.225 8.141 8.141 0 01.737-1.359 8.066 8.066 0 012.158-2.158 7.992 7.992 0 018.945 0 8 8 0 012.9 3.517 8.033 8.033 0 01.466 4.724zm-4.044 3.9a6.688 6.688 0 002.378-2.91 6.667 6.667 0 00.39-1.257c.021-.1.031-.2.046-.307a9.297 9.297 0 00-.215-.058l-.04-.01c-.193-.048-.448-.1-.755-.155a9.818 9.818 0 00-3.105-.027 30.274 30.274 0 011.301 4.728zm-6.395.652a6.729 6.729 0 001.256.39 6.771 6.771 0 002.7 0 6.68 6.68 0 001.257-.39l.037-.018a28.806 28.806 0 00-1.436-5.045l-.044.013a11.452 11.452 0 00-1.134.469l-.152.07c-.328.161-.632.331-.914.506l-.157.1a9.907 9.907 0 00-.757.534l-.105.085a8.692 8.692 0 00-1.158 1.101l-.065.073c-.139.162-.26.315-.365.456l-.058.078c-.1.134-.182.259-.248.364l-.031.051a4.5 4.5 0 00-.149.255c.128.1.256.2.391.293a6.787 6.787 0 001.133.619zM1.313 7.777c0 .072-.011.143-.011.215a6.805 6.805 0 00.136 1.348 6.615 6.615 0 00.39 1.257 6.788 6.788 0 00.617 1.137 6.886 6.886 0 00.557.673c.045-.072.113-.175.193-.291l.039-.058a16.6 16.6 0 01.3-.412l.069-.088c.126-.159.266-.329.426-.509l.074-.081c.174-.192.361-.391.572-.595.206-.2.436-.4.679-.6l.11-.091c.238-.19.494-.374.765-.553l.155-.1a9.536 9.536 0 01.885-.5c.047-.023.1-.044.144-.066a8.844 8.844 0 011.053-.424c.087-.028.176-.049.263-.074a23.375 23.375 0 00-.552-1.169 25.176 25.176 0 01-6.506.974c-.15.011-.275.012-.357.011zm3.854-5.845a6.672 6.672 0 00-3.339 3.455 6.641 6.641 0 00-.375 1.2h.298a21.31 21.31 0 001-.045 26.316 26.316 0 004.232-.629q.311-.073.628-.157a41.529 41.529 0 00-2.443-3.82zm6.57.51a6.718 6.718 0 00-5.092-1.007c-.057.012-.112.03-.169.043a35.124 35.124 0 012.455 3.851c.267-.1.516-.206.75-.315l.014-.007a7.46 7.46 0 002.714-2.011 6.832 6.832 0 00-.671-.55zm2.815 4.2a6.686 6.686 0 00-.39-1.256 6.79 6.79 0 00-.617-1.137c-.112-.165-.254-.306-.38-.461a8.865 8.865 0 01-2.886 2.184l-.054.027c-.241.12-.493.235-.767.347.161.329.316.663.46 1 .051.12.094.236.143.355.243-.031.485-.051.725-.066l.121-.006q.307-.016.6-.019h.1c.227 0 .449 0 .663.013h.047c.193.009.379.021.557.035l.127.01c.174.015.341.031.5.049h.031c.166.019.316.039.456.059l.1.015.282.045.069.012.243.045a6.844 6.844 0 00-.129-1.246z"/>
</symbol><symbol id="facebook" viewBox="0 0 7.489 16">
    <path d="M5.334 16H2.001V8h-2V5.333h2V3.707C2.001 1.484 2.675 0 5.294 0h2.04v2.667H6.112c-1.019 0-1.087.486-1.087 1.2v1.47h2.469L7.201 8H5.334z"/>
</symbol><symbol id="left arrow" viewBox="0 0 7.554 11.428">
    <path data-name="left arrow" d="M5.671 11.428L0 5.714 5.675 0l1.879 1.867-3.821 3.847 3.821 3.848z"/>
</symbol><symbol id="right arrow" viewBox="0 0 7.554 11.428">
    <path data-name="right arrow" d="M1.877 0l5.678 5.714-5.678 5.714-1.88-1.867 3.824-3.847L0 1.867z"/>
</symbol><symbol id="rss" viewBox="0 0 16.087 16.087">
    <path d="M12.987 16.087A13 13 0 000 3.098v-3.1a16.088 16.088 0 0116.087 16.089zm-5.632 0A7.365 7.365 0 000 8.729v-3.1a10.455 10.455 0 0110.455 10.458zM0 14.187a1.9 1.9 0 111.9 1.9 1.9 1.9 0 01-1.9-1.9z"/>
</symbol><symbol id="twitter" viewBox="0 0 25.415 14.248">
    <path d="M23.794 3.879a13.317 13.317 0 00-1.982-2.7 2.507 2.507 0 00-3.327.159 16.724 16.724 0 00-1.759 1.515L11.565-.002v.276l1.482 1.468-1.657-.654 1.075 1.221-1.264-.495.164.321A14.181 14.181 0 008.991.576a17.868 17.868 0 001.18 1.623l-1.437-.807.86 1.323-1.215-.675 3.878 4.108S5.348 11.631 0 6.024c0 0 8.636 10.268 15.758 7.856a13.928 13.928 0 007.548-7.856 2.737 2.737 0 01.989-.751 7.839 7.839 0 001.12-.556zm-2.3.908c-.483 0-.876-.537-.876-1.2s.393-1.2.876-1.2.877.538.877 1.2-.394 1.2-.879 1.2z"/>
</symbol></svg>