<?xml version="1.0" standalone="no"?>
<!DOCTYPE svg PUBLIC "-//W3C//DTD SVG 20010904//EN"
 "http://www.w3.org/TR/2001/REC-SVG-20010904/DTD/svg10.dtd">
<svg version="1.0" xmlns="http://www.w3.org/2000/svg"
 width="2192.000000pt" height="2192.000000pt" viewBox="0 0 2192.000000 2192.000000"
 preserveAspectRatio="xMidYMid meet">
<metadata>
Created by potrace 1.11, written by Peter Selinger 2001-2013
</metadata>
<g transform="translate(0.000000,2192.000000) scale(0.100000,-0.100000)"
fill="#000000" stroke="none">
<path d="M10848 14623 c-83 -84 -127 -131 -190 -203 -61 -70 -228 -310 -254
-365 -8 -16 -28 -55 -44 -85 -25 -46 -61 -129 -110 -257 l-9 -21 -53 18 c-56
20 -149 47 -189 56 -182 38 -292 49 -494 48 -163 -1 -241 -6 -251 -17 -20 -20
-20 -589 1 -650 2 -7 7 -34 10 -62 10 -98 27 -193 40 -235 3 -10 8 -27 10 -39
9 -49 47 -173 76 -246 36 -94 129 -275 141 -275 4 0 8 -4 8 -10 0 -5 6 -18 14
-27 91 -113 129 -153 192 -205 154 -126 321 -211 521 -264 118 -31 127 -33
178 -39 22 -3 54 -8 70 -10 77 -13 141 -17 285 -16 238 1 323 1 485 -1 135 -1
255 5 310 16 11 2 43 7 70 11 56 8 203 42 245 57 8 3 38 14 65 23 28 10 73 29
102 42 28 12 56 23 62 23 5 0 11 4 13 9 2 5 10 11 18 13 8 2 19 6 25 11 5 4
49 35 97 68 159 111 283 261 376 451 83 171 147 386 168 561 4 29 9 56 11 61
3 4 7 25 8 45 1 20 6 79 11 131 8 103 10 408 2 504 l-5 60 -69 4 c-107 8 -331
7 -414 -2 -125 -12 -233 -28 -242 -35 -2 -2 -14 -5 -28 -8 -104 -20 -251 -73
-362 -129 -37 -19 -68 -33 -69 -32 0 2 -2 11 -4 20 -15 80 -98 281 -166 404
-56 99 -125 212 -139 224 -3 3 -23 30 -45 60 -46 64 -119 152 -190 229 -61 65
-174 175 -183 179 -4 1 -51 -42 -104 -95z m152 -177 c19 -21 46 -51 60 -65 25
-26 136 -164 175 -218 117 -163 257 -445 281 -566 2 -10 5 -26 8 -35 11 -35
14 -72 7 -72 -8 0 -76 -66 -131 -126 -83 -91 -222 -338 -245 -434 -2 -8 -13
-40 -24 -70 -23 -63 -60 -212 -63 -252 -1 -16 -5 -28 -9 -28 -6 0 -18 40 -24
80 -1 8 -6 31 -10 50 -5 19 -9 37 -10 40 -4 27 -30 107 -36 114 -5 6 -9 17 -9
25 0 26 -52 150 -104 247 -103 194 -254 355 -429 457 -37 22 -47 33 -42 45 4
10 11 28 15 42 34 108 121 283 205 410 111 168 319 414 340 402 6 -3 26 -24
45 -46z m-1265 -800 c22 -3 62 -8 90 -12 75 -8 210 -41 298 -72 l79 -27 -9
-55 c-16 -106 -9 -366 12 -460 3 -14 7 -34 9 -45 8 -43 48 -161 83 -249 36
-89 151 -305 179 -337 8 -8 14 -20 14 -26 0 -6 3 -13 8 -15 4 -1 28 -33 54
-69 77 -108 216 -268 311 -357 20 -19 37 -38 37 -41 0 -12 -297 -1 -390 15
-314 53 -537 153 -707 317 -76 73 -166 194 -202 272 -67 145 -80 175 -76 175
2 0 -2 15 -10 34 -8 18 -16 44 -19 57 -3 13 -14 58 -25 99 -11 41 -22 91 -25
110 -3 19 -7 44 -10 55 -2 11 -7 45 -11 75 -4 30 -9 63 -11 73 -10 54 -19 318
-15 458 l1 36 148 -3 c81 -1 165 -5 187 -8z m2970 5 c17 -2 9 -415 -10 -509
-2 -10 -6 -43 -10 -73 -3 -30 -8 -61 -10 -69 -2 -8 -7 -30 -10 -47 -18 -109
-65 -270 -101 -351 -58 -128 -88 -185 -132 -248 -127 -179 -309 -309 -547
-389 -108 -36 -112 -37 -238 -60 -157 -29 -440 -41 -461 -19 -14 14 -14 182 0
192 5 4 27 30 49 57 21 28 42 52 45 55 13 11 161 222 167 238 4 9 10 19 14 22
6 5 74 127 105 190 54 110 123 330 141 450 4 25 7 111 8 192 l0 148 33 17 c17
10 32 20 32 24 0 4 8 9 18 12 9 3 58 24 109 46 85 37 239 83 323 96 76 12 107
16 170 21 36 4 66 7 67 8 2 2 223 -1 238 -3z m-2312 -221 c14 -11 30 -20 35
-20 6 0 19 -11 30 -25 11 -14 24 -25 28 -25 18 0 124 -119 177 -198 52 -78
127 -220 127 -242 0 -6 4 -18 10 -28 20 -36 71 -213 84 -292 1 -8 5 -28 9 -45
3 -16 9 -52 12 -80 4 -27 9 -61 11 -75 12 -79 26 -320 18 -320 -17 0 -206 226
-281 335 -26 39 -51 72 -55 73 -5 2 -8 7 -8 11 0 5 -22 46 -48 92 -69 120
-153 324 -167 404 -2 11 -6 31 -10 45 -29 114 -33 410 -5 410 4 0 19 -9 33
-20z m1162 -222 c-3 -46 -7 -94 -10 -108 -3 -14 -8 -38 -11 -54 -16 -91 -72
-254 -117 -341 -12 -22 -21 -43 -22 -47 0 -4 -6 -13 -12 -19 -7 -7 -13 -17
-13 -23 0 -15 -109 -189 -122 -194 -5 -2 -8 -10 -8 -18 0 -8 -4 -14 -9 -14 -5
0 -13 -9 -16 -20 -3 -11 -11 -20 -16 -20 -10 0 -9 13 7 120 6 38 21 122 28
150 3 14 8 35 10 48 13 66 79 272 88 272 4 0 8 7 8 16 0 44 184 332 212 334 4
0 5 -37 3 -82z"/>
<path d="M326 12879 c-11 -37 -13 -59 -5 -64 4 -3 4 -16 -1 -29 -5 -13 -6 -27
-2 -31 4 -4 7 -11 7 -17 0 -6 10 -14 23 -19 14 -5 22 -5 22 2 0 6 5 7 10 4 10
-6 133 -8 180 -2 14 2 35 0 47 -5 13 -4 25 -3 28 3 4 5 11 6 17 3 10 -6 75 -7
166 -2 23 2 42 1 42 -2 0 -6 111 -2 118 4 2 3 15 1 28 -4 14 -6 26 -6 29 1 4
5 13 6 22 1 8 -5 32 -6 52 -2 21 4 47 3 59 -1 12 -5 24 -4 27 2 4 5 13 6 22 1
8 -5 32 -6 52 -2 21 4 47 3 59 -1 12 -5 24 -4 27 2 4 5 13 6 22 1 8 -5 32 -6
52 -2 21 4 47 3 59 -1 12 -5 24 -4 27 2 4 5 13 6 21 1 8 -4 39 -5 69 -2 30 3
55 4 55 1 0 -6 126 -4 180 2 14 2 35 0 47 -5 13 -4 25 -3 28 3 4 5 11 6 17 3
10 -6 75 -7 166 -2 23 2 42 1 42 -2 0 -6 111 -2 118 4 2 3 15 1 28 -4 14 -6
26 -6 29 1 4 5 13 6 22 1 8 -5 32 -6 52 -2 21 4 47 3 59 -1 12 -5 24 -4 27 2
4 5 13 6 22 1 8 -5 32 -6 52 -2 21 4 47 3 59 -1 12 -5 24 -4 27 2 4 5 13 6 22
1 8 -5 32 -6 52 -2 21 4 47 3 59 -1 12 -5 24 -4 27 2 4 5 13 6 21 1 8 -4 39
-5 69 -2 30 3 55 4 55 1 0 -6 126 -4 180 2 14 2 35 0 47 -5 13 -4 25 -3 28 3
4 5 11 6 17 3 10 -6 75 -7 166 -2 23 2 42 1 42 -2 0 -6 111 -2 118 4 2 3 15 1
28 -4 14 -6 26 -6 29 1 4 5 13 6 22 1 8 -5 32 -6 52 -2 21 4 47 3 59 -1 12 -5
24 -4 27 2 4 5 13 6 22 1 8 -5 32 -6 52 -2 21 4 47 3 59 -1 12 -5 24 -4 27 2
4 5 13 6 22 1 8 -5 32 -6 52 -2 21 4 47 3 59 -1 12 -5 24 -4 27 2 4 5 13 6 21
1 8 -4 39 -5 69 -2 30 3 55 4 55 1 0 -6 126 -4 180 2 14 2 35 0 47 -5 13 -4
25 -3 28 3 4 5 11 6 17 3 10 -6 75 -7 166 -2 23 2 42 1 42 -2 0 -6 111 -2 118
4 2 3 15 1 28 -4 14 -6 26 -6 29 1 4 5 13 6 22 1 8 -5 32 -6 52 -2 21 4 47 3
59 -1 12 -5 24 -4 27 2 4 5 13 6 22 1 8 -5 32 -6 52 -2 21 4 47 3 59 -1 12 -5
24 -4 27 2 4 5 13 6 22 1 8 -5 32 -6 52 -2 21 4 47 3 59 -1 12 -5 24 -4 27 2
4 5 13 6 21 1 8 -4 39 -5 69 -2 30 3 55 4 55 1 0 -6 126 -4 180 2 14 2 35 0
47 -5 13 -4 25 -3 28 3 4 5 11 6 17 3 10 -6 75 -7 166 -2 23 2 42 1 42 -2 0
-6 111 -2 118 4 2 3 15 1 28 -4 14 -6 26 -6 29 1 4 5 13 6 22 1 8 -5 32 -6 52
-2 21 4 47 3 59 -1 12 -5 24 -4 27 2 4 5 13 6 22 1 8 -5 32 -6 52 -2 21 4 47
3 59 -1 12 -5 24 -4 27 2 4 5 13 6 22 1 8 -5 32 -6 52 -2 21 4 47 3 59 -1 12
-5 24 -4 27 2 4 5 13 6 21 1 8 -4 39 -5 69 -2 30 3 55 4 55 1 0 -6 126 -4 180
2 14 2 35 0 47 -5 13 -4 25 -3 28 3 4 5 11 6 17 3 10 -6 75 -7 166 -2 23 2 42
1 42 -2 0 -6 111 -2 118 4 2 3 15 1 28 -4 14 -6 26 -6 29 1 4 5 13 6 22 1 8
-5 25 -7 38 -4 21 4 24 10 27 69 2 35 0 71 -3 80 -6 17 -5 17 -174 12 -27 0
-54 0 -60 1 -18 3 -140 1 -167 -3 -14 -2 -32 -1 -39 4 -7 4 -23 3 -36 -2 -13
-5 -22 -6 -20 -1 3 4 -20 6 -51 5 -90 -4 -156 -5 -167 -3 -5 1 -41 1 -80 1
-38 -1 -82 -1 -97 -1 -44 0 -57 0 -70 0 -7 0 -58 0 -113 0 -55 1 -112 -1 -127
-3 -14 -2 -32 -1 -39 4 -7 4 -23 3 -36 -2 -13 -5 -22 -6 -20 -1 3 4 -20 6 -51
5 -90 -4 -156 -5 -167 -3 -18 3 -140 1 -167 -3 -14 -2 -32 -1 -39 4 -7 4 -23
3 -36 -2 -13 -5 -22 -6 -20 -1 3 4 -20 6 -51 5 -90 -4 -156 -5 -167 -3 -18 3
-140 1 -167 -3 -14 -2 -32 -1 -39 4 -7 4 -23 3 -36 -2 -12 -5 -23 -5 -23 -1 0
4 -26 6 -57 4 -32 -1 -71 -2 -88 -2 -47 1 -48 1 -77 -3 -14 -2 -32 -1 -39 4
-7 4 -23 3 -36 -2 -13 -5 -22 -6 -20 -1 3 4 -20 6 -51 5 -90 -4 -156 -5 -167
-3 -18 3 -140 1 -167 -3 -14 -2 -32 -1 -39 4 -7 4 -23 3 -36 -2 -13 -5 -22 -6
-20 -1 3 4 -20 6 -51 5 -90 -4 -156 -5 -167 -3 -5 1 -41 1 -80 1 -38 -1 -82
-1 -97 -1 -44 0 -57 0 -70 0 -7 0 -58 0 -113 0 -55 1 -112 -1 -127 -3 -14 -2
-32 -1 -39 4 -7 4 -23 3 -36 -2 -13 -5 -22 -6 -20 -1 3 4 -20 6 -51 5 -90 -4
-156 -5 -167 -3 -18 3 -140 1 -167 -3 -14 -2 -32 -1 -39 4 -7 4 -23 3 -36 -2
-13 -5 -22 -6 -20 -1 3 4 -20 6 -51 5 -90 -4 -156 -5 -167 -3 -18 3 -140 1
-167 -3 -14 -2 -32 -1 -39 4 -7 4 -23 3 -36 -2 -12 -5 -23 -5 -23 -1 0 4 -26
6 -57 4 -32 -1 -71 -2 -88 -2 -47 1 -48 1 -77 -3 -14 -2 -32 -1 -39 4 -7 4
-23 3 -36 -2 -13 -5 -22 -6 -20 -1 3 4 -20 6 -51 5 -90 -4 -156 -5 -167 -3
-18 3 -140 1 -167 -3 -14 -2 -32 -1 -39 4 -7 4 -23 3 -36 -2 -13 -5 -22 -6
-20 -1 3 4 -20 6 -51 5 -90 -4 -156 -5 -167 -3 -5 1 -41 1 -80 1 -38 -1 -82
-1 -97 -1 -44 0 -57 0 -70 0 -7 0 -58 0 -113 0 -55 1 -112 -1 -127 -3 -14 -2
-32 -1 -39 4 -7 4 -23 3 -36 -2 -13 -5 -22 -6 -20 -1 3 4 -20 6 -51 5 -90 -4
-156 -5 -167 -3 -18 3 -140 1 -167 -3 -14 -2 -32 -1 -39 4 -7 4 -23 3 -36 -2
-13 -5 -22 -6 -20 -1 3 4 -20 6 -51 5 -32 -1 -81 -3 -109 -4 -29 -2 -56 0 -59
4 -3 3 -16 2 -29 -3 -14 -5 -26 -5 -33 2 -8 8 -13 7 -16 -3z"/>
<path d="M14423 12882 c-19 -3 -23 -10 -24 -45 -3 -112 7 -129 69 -117 21 4
48 3 60 -1 12 -5 24 -4 27 2 4 5 11 6 17 3 6 -4 38 -6 72 -5 33 1 67 2 74 2 6
-1 22 -1 35 -1 12 0 33 1 47 3 14 2 35 0 46 -4 13 -4 26 -3 33 4 6 6 11 7 11
2 0 -11 126 -12 136 -2 3 3 16 2 29 -3 13 -5 25 -7 28 -4 9 9 62 11 84 3 13
-5 25 -4 28 2 4 5 11 6 17 3 10 -6 75 -7 166 -2 23 2 42 1 42 -2 0 -5 129 -2
180 3 14 2 35 0 47 -5 13 -4 25 -3 28 3 4 5 11 6 17 3 10 -6 75 -7 166 -2 23
2 42 1 42 -2 0 -6 111 -2 118 4 2 3 15 1 28 -4 14 -6 26 -6 29 1 4 5 13 6 22
1 8 -5 32 -6 52 -2 21 4 47 3 59 -1 12 -5 24 -4 27 2 4 5 13 6 21 1 8 -4 39
-5 69 -2 30 3 55 4 55 1 0 -6 126 -4 180 2 14 2 35 0 47 -5 13 -4 25 -3 28 3
4 5 11 6 17 3 10 -6 75 -7 166 -2 23 2 42 1 42 -2 0 -6 111 -2 118 4 2 3 15 1
28 -4 14 -6 26 -6 29 1 4 5 13 6 22 1 8 -5 32 -6 52 -2 21 4 47 3 59 -1 12 -5
24 -4 27 2 4 5 13 6 21 1 8 -4 39 -5 69 -2 30 3 55 4 55 1 0 -6 126 -4 180 2
14 2 35 0 47 -5 13 -4 25 -3 28 3 4 5 11 6 17 3 10 -6 75 -7 166 -2 23 2 42 1
42 -2 0 -5 130 -2 180 3 14 2 35 0 46 -4 13 -4 26 -3 33 4 6 6 11 7 11 1 0
-10 126 -11 136 -1 3 3 16 2 29 -3 13 -5 25 -7 28 -4 9 9 62 11 84 3 13 -5 25
-4 28 2 4 5 11 6 17 3 6 -4 38 -6 72 -5 33 1 67 2 74 2 6 -1 22 -1 35 -1 12 0
33 1 47 3 14 2 35 0 46 -4 13 -4 26 -3 33 4 6 6 11 7 11 1 0 -10 126 -11 136
-1 3 3 16 2 29 -3 13 -5 25 -7 28 -4 9 9 62 11 84 3 13 -5 25 -4 28 2 4 5 11
6 17 3 10 -6 75 -7 166 -2 23 2 42 1 42 -2 0 -5 129 -2 180 3 14 2 35 0 47 -5
13 -4 25 -3 28 3 4 5 11 6 17 3 10 -6 75 -7 166 -2 23 2 42 1 42 -2 0 -6 111
-2 118 4 2 3 15 1 28 -4 14 -6 26 -6 29 1 4 5 13 6 22 1 8 -5 32 -6 52 -2 21
4 47 3 59 -1 12 -5 24 -4 27 2 4 5 13 6 21 1 8 -4 39 -5 69 -2 30 3 55 4 55 1
0 -6 126 -4 180 2 14 2 35 0 47 -5 13 -4 25 -3 28 3 4 5 11 6 17 3 10 -6 75
-7 166 -2 23 2 42 1 42 -2 0 -6 111 -2 118 4 2 3 15 1 28 -4 14 -6 26 -6 29 1
4 5 13 6 22 1 8 -5 32 -6 52 -2 21 4 47 3 59 -1 12 -5 24 -4 27 2 4 5 13 6 21
1 8 -4 39 -5 69 -2 30 3 55 4 55 1 0 -6 126 -4 180 2 14 2 35 0 47 -5 13 -4
25 -3 28 3 4 5 11 6 17 3 10 -6 75 -7 166 -2 23 2 42 1 42 -2 0 -11 94 0 101
11 4 7 4 22 -1 34 -5 12 -5 27 -1 33 4 7 5 27 3 46 -4 31 -7 34 -35 34 -18 0
-36 1 -42 2 -17 3 -139 1 -167 -3 -14 -2 -32 -1 -39 4 -7 4 -23 3 -36 -2 -13
-5 -22 -6 -20 -1 3 4 -20 6 -51 5 -90 -4 -156 -5 -167 -3 -18 3 -140 1 -167
-3 -14 -2 -32 -1 -39 4 -7 4 -23 3 -36 -2 -13 -5 -22 -6 -20 -1 3 4 -20 6 -51
5 -90 -4 -156 -5 -167 -3 -18 3 -140 1 -167 -3 -14 -2 -32 -1 -39 4 -7 4 -23
3 -36 -2 -13 -5 -22 -6 -20 -1 3 4 -20 6 -51 5 -90 -4 -156 -5 -167 -3 -18 3
-140 1 -167 -3 -14 -2 -32 -1 -39 4 -7 4 -23 3 -36 -2 -13 -5 -22 -6 -20 -1 3
4 -20 6 -51 5 -90 -4 -156 -5 -167 -3 -18 3 -140 1 -167 -3 -14 -2 -32 -1 -39
4 -7 4 -23 3 -36 -2 -13 -5 -22 -6 -20 -1 3 4 -25 6 -61 4 -82 -3 -70 -3 -169
-1 -45 0 -85 -1 -90 -4 -5 -3 -15 -2 -23 3 -8 5 -21 5 -30 0 -9 -5 -22 -5 -29
-1 -7 5 -30 5 -51 1 -21 -4 -44 -4 -51 1 -7 4 -20 4 -29 -1 -9 -5 -22 -5 -29
-1 -7 5 -30 5 -51 1 -21 -4 -44 -4 -51 1 -7 4 -20 4 -29 -1 -9 -5 -22 -5 -29
-1 -7 5 -30 5 -51 1 -21 -4 -44 -4 -51 1 -7 4 -20 4 -29 -1 -9 -5 -22 -5 -29
-1 -7 5 -30 5 -51 1 -21 -4 -44 -4 -51 1 -7 4 -20 4 -29 -1 -9 -5 -22 -5 -29
-1 -7 5 -30 5 -51 1 -21 -4 -44 -4 -51 1 -7 4 -20 4 -29 -1 -9 -5 -22 -5 -29
-1 -7 5 -30 5 -51 1 -21 -4 -44 -4 -51 1 -7 4 -20 4 -29 -1 -9 -5 -22 -5 -29
-1 -7 5 -30 5 -51 1 -21 -4 -44 -4 -51 1 -7 4 -20 4 -29 -1 -9 -5 -21 -5 -28
-1 -6 4 -39 4 -72 1 -34 -3 -63 -4 -65 -1 -6 5 -127 4 -167 -2 -14 -2 -32 -1
-39 4 -7 4 -23 3 -36 -2 -13 -5 -22 -6 -20 -1 3 4 -20 6 -51 5 -90 -4 -156 -5
-167 -3 -18 3 -140 1 -167 -3 -14 -2 -32 -1 -39 4 -7 4 -23 3 -36 -2 -13 -5
-22 -6 -20 -1 3 4 -20 6 -51 5 -90 -4 -156 -5 -167 -3 -18 3 -140 1 -167 -3
-14 -2 -32 -1 -39 4 -7 4 -23 3 -36 -2 -13 -5 -22 -6 -20 -1 3 4 -20 6 -51 5
-90 -4 -156 -5 -167 -3 -18 3 -140 1 -167 -3 -14 -2 -32 -1 -39 4 -7 4 -23 3
-36 -2 -13 -5 -22 -6 -20 -1 3 4 -20 6 -51 5 -90 -4 -156 -5 -167 -3 -18 3
-140 1 -167 -3 -14 -2 -32 -1 -39 4 -7 4 -23 3 -36 -2 -13 -5 -22 -6 -20 -1 3
4 -25 6 -61 4 -82 -3 -70 -3 -169 -1 -45 0 -85 -1 -90 -4 -5 -3 -15 -2 -23 3
-8 5 -21 5 -30 0 -9 -5 -22 -5 -29 -1 -7 5 -30 5 -51 1 -21 -4 -44 -4 -51 1
-7 4 -20 4 -29 -1 -9 -5 -22 -5 -29 -1 -7 5 -30 5 -51 1 -21 -4 -44 -4 -51 1
-7 4 -20 4 -29 -1 -9 -5 -22 -5 -29 -1 -7 5 -30 5 -51 1 -21 -4 -44 -4 -51 1
-7 4 -20 4 -29 -1 -9 -5 -22 -5 -29 -1 -7 5 -30 5 -51 1 -21 -4 -44 -4 -51 1
-7 4 -20 4 -29 -1 -9 -5 -22 -5 -29 -1 -7 5 -30 5 -51 1 -21 -4 -44 -4 -51 1
-7 4 -20 4 -29 -1 -8 -4 -22 -5 -30 -1 -8 4 -25 5 -37 3z"/>
<path d="M4575 10142 c-174 -11 -358 -61 -478 -129 -33 -18 -61 -33 -65 -33
-30 0 -302 -247 -302 -275 0 -3 -15 -26 -34 -52 -100 -142 -174 -386 -172
-571 1 -34 -3 -62 -7 -62 -5 0 -5 -6 -1 -12 5 -7 10 -39 11 -71 2 -32 15 -101
28 -153 24 -94 91 -266 107 -272 4 -2 8 -8 8 -14 0 -9 43 -76 80 -123 38 -49
161 -164 220 -206 115 -82 308 -162 442 -185 61 -10 363 -14 403 -5 22 5 58
12 80 16 22 3 67 13 100 21 33 9 69 18 80 21 11 2 25 5 30 7 6 2 28 7 50 11
22 5 43 10 48 11 4 1 18 2 32 3 l26 1 -1 180 c-2 207 -9 221 -58 115 -28 -59
-91 -133 -160 -187 -24 -19 -121 -61 -163 -71 -145 -35 -321 -28 -454 17 -99
34 -187 82 -294 161 -80 58 -261 276 -261 313 0 6 -4 12 -9 14 -15 6 -81 185
-101 275 -15 68 -18 115 -15 217 2 72 6 142 8 156 60 311 230 545 488 675 63
32 175 71 190 67 4 -1 22 3 40 9 59 17 257 19 329 3 36 -8 76 -17 90 -20 112
-24 226 -141 260 -264 3 -14 14 -26 23 -28 14 -3 16 15 16 172 1 97 0 176 -2
176 -1 1 -20 3 -42 6 -22 3 -56 10 -75 17 -19 6 -39 12 -45 13 -5 1 -46 11
-90 22 -125 32 -237 43 -360 34z"/>
<path d="M8690 10110 c-6 -25 -15 -49 -20 -55 -4 -5 -17 -39 -29 -75 -29 -83
-78 -213 -102 -267 -11 -24 -19 -47 -19 -51 0 -5 -12 -37 -26 -73 -14 -35 -28
-70 -30 -79 -1 -8 -17 -51 -34 -95 -35 -92 -181 -478 -216 -575 -14 -36 -27
-72 -31 -80 -3 -8 -7 -18 -8 -22 -2 -5 -4 -10 -5 -13 -1 -3 -3 -8 -5 -12 -1
-5 -5 -17 -10 -28 -4 -11 -20 -54 -36 -95 -15 -41 -49 -129 -74 -195 -25 -66
-48 -127 -50 -135 -8 -34 -48 -118 -78 -162 -23 -35 -42 -51 -69 -60 -64 -19
-47 -36 40 -40 126 -5 277 5 280 20 1 6 -7 12 -17 12 -33 0 -61 32 -66 75 -4
31 5 67 36 150 22 61 45 126 51 145 5 19 13 40 16 45 4 6 7 17 9 25 1 8 6 23
12 35 5 11 40 103 76 205 37 102 71 194 76 205 9 19 19 20 286 20 l276 0 13
-30 c7 -17 25 -64 40 -105 14 -41 30 -84 35 -95 42 -96 211 -577 211 -601 0
-37 -26 -67 -62 -72 -31 -5 -36 -10 -24 -22 6 -6 82 -10 185 -10 96 0 197 0
226 0 28 -1 54 4 58 10 9 15 5 18 -27 24 -73 13 -114 66 -168 221 -12 33 -25
69 -30 80 -4 11 -18 47 -30 80 -12 33 -26 69 -31 80 -5 11 -38 101 -74 200
-36 99 -68 187 -72 195 -3 8 -7 20 -9 25 -1 6 -44 120 -94 255 -50 135 -103
277 -116 315 -14 39 -29 79 -34 90 -9 19 -88 229 -94 250 -3 12 -12 35 -31 85
-7 19 -31 82 -53 140 l-40 105 -12 -45z m-24 -452 c3 -18 10 -39 15 -48 4 -8
26 -64 48 -125 22 -60 63 -173 91 -250 29 -77 56 -151 60 -165 l7 -26 -244 0
c-215 0 -243 2 -237 16 3 8 10 26 14 40 4 14 25 68 45 120 20 52 38 102 40
110 2 8 20 58 40 110 20 52 38 100 39 105 2 6 8 23 14 38 7 16 12 30 12 33 0
14 35 82 41 78 4 -2 11 -19 15 -36z"/>
<path d="M13717 10145 c-1 -2 -38 -6 -82 -10 -84 -8 -120 -12 -120 -15 0 -2
-16 -6 -55 -13 -14 -3 -25 -6 -25 -7 0 -1 -10 -3 -23 -6 -40 -7 -185 -70 -252
-110 -203 -118 -365 -308 -450 -529 -13 -34 -13 -31 -40 -140 -38 -155 -43
-357 -10 -485 5 -19 11 -45 13 -57 2 -12 6 -26 10 -29 4 -4 7 -15 7 -25 0 -35
76 -196 131 -279 61 -90 159 -194 248 -259 61 -46 221 -131 245 -131 9 0 16
-4 16 -8 0 -5 21 -14 48 -20 26 -7 56 -15 67 -18 29 -8 54 -13 105 -19 25 -3
52 -8 60 -11 18 -6 257 -6 290 1 14 3 42 7 64 10 21 3 41 7 45 9 3 2 26 7 51
11 25 4 48 9 52 11 4 3 16 7 25 9 10 2 57 12 104 24 48 12 98 21 111 21 l24 0
-1 177 c0 149 -3 178 -15 180 -10 2 -25 -19 -43 -60 -15 -35 -49 -85 -75 -113
-116 -122 -249 -171 -452 -168 -116 2 -189 16 -290 55 -77 29 -212 108 -265
154 -108 95 -150 141 -211 236 -43 66 -93 165 -98 192 -1 7 -7 21 -13 32 -6
11 -14 36 -19 55 -4 19 -9 42 -11 50 -58 234 -16 524 106 729 40 68 50 81 124
164 100 115 309 233 447 253 19 3 44 8 55 11 11 3 68 7 126 9 282 7 464 -92
520 -284 9 -30 17 -42 28 -40 14 3 16 27 16 178 l0 175 -30 1 c-40 2 -84 11
-115 23 -32 13 -184 50 -230 57 -36 5 -208 12 -213 9z"/>
<path d="M18556 10067 c-15 -45 -34 -95 -41 -112 -7 -16 -50 -127 -95 -245
-44 -118 -86 -226 -92 -240 -5 -14 -21 -56 -35 -95 -14 -38 -32 -86 -40 -105
-18 -41 -20 -46 -66 -170 -20 -52 -42 -108 -48 -125 -7 -16 -13 -32 -14 -35
-7 -30 -29 -87 -36 -95 -5 -5 -9 -16 -9 -25 0 -9 -9 -35 -20 -58 -11 -22 -20
-48 -20 -56 0 -8 -4 -17 -9 -20 -4 -3 -14 -26 -21 -51 -7 -25 -17 -48 -21 -51
-5 -3 -9 -11 -9 -19 0 -8 -5 -26 -12 -42 -6 -15 -12 -33 -13 -39 -2 -6 -10
-27 -18 -45 -9 -19 -34 -83 -57 -144 -65 -175 -70 -178 -282 -184 l-28 -1 0
-199 c0 -183 1 -199 17 -197 11 2 20 16 25 40 9 40 43 112 64 133 7 8 19 22
26 31 7 10 31 31 52 47 l39 30 776 3 c584 2 787 -1 821 -10 30 -8 60 -27 90
-57 44 -45 100 -142 100 -174 0 -26 11 -47 26 -47 12 0 14 36 14 200 l0 200
-32 1 c-163 4 -174 8 -220 75 -15 22 -47 93 -73 159 -25 66 -50 129 -55 140
-4 11 -22 58 -40 105 -30 80 -37 97 -59 153 -5 12 -19 49 -32 82 -12 33 -28
74 -35 90 -8 17 -43 109 -79 205 -37 96 -70 184 -75 195 -16 34 -100 255 -100
261 0 3 -6 20 -14 37 -8 18 -38 93 -66 167 -29 74 -58 149 -65 165 -7 17 -25
64 -40 105 -41 112 -45 113 -79 17z m49 -529 c101 -263 132 -342 140 -363 5
-11 9 -22 10 -25 1 -3 5 -14 10 -25 11 -27 131 -336 157 -405 12 -30 27 -68
34 -85 7 -16 23 -57 34 -90 12 -33 28 -73 35 -90 7 -16 20 -48 28 -70 8 -22
18 -49 23 -60 4 -11 8 -24 10 -30 1 -5 16 -43 33 -84 17 -41 31 -79 31 -86 0
-10 -126 -13 -610 -13 -335 0 -610 2 -610 5 0 5 46 126 60 158 5 11 48 124 97
250 48 127 89 232 92 235 4 3 7 12 9 20 4 19 69 193 93 247 11 23 19 46 19 50
0 4 6 20 14 34 7 14 16 38 20 53 4 16 15 47 25 70 20 43 126 317 126 326 1 3
11 27 23 54 12 27 22 55 22 62 0 39 22 -1 75 -138z"/>
<path d="M20821 10022 c-24 -64 -49 -128 -54 -142 -6 -14 -11 -27 -12 -30 -4
-13 -19 -49 -36 -92 -10 -26 -19 -52 -19 -57 0 -6 -9 -30 -19 -54 -11 -23 -31
-73 -44 -112 -14 -38 -30 -81 -35 -95 -6 -14 -27 -70 -47 -125 -21 -55 -41
-109 -45 -120 -5 -11 -18 -47 -30 -80 -13 -33 -29 -72 -37 -87 -8 -16 -11 -28
-7 -28 3 0 1 -7 -6 -15 -7 -8 -9 -15 -5 -15 4 0 3 -6 -2 -12 -8 -11 -33 -75
-38 -98 -1 -3 -9 -22 -18 -44 -9 -21 -17 -41 -17 -45 0 -7 -55 -152 -75 -196
-7 -16 -25 -65 -40 -109 -14 -43 -30 -86 -35 -95 -7 -14 -42 -107 -46 -121 0
-3 -4 -14 -9 -25 -4 -11 -14 -35 -21 -53 -15 -38 -70 -112 -94 -127 -8 -5 -24
-11 -34 -12 -26 -4 -32 -11 -20 -22 9 -9 113 -14 272 -12 66 1 82 4 82 16 0 8
-8 15 -18 15 -20 0 -61 34 -63 53 -1 7 -3 23 -4 36 -2 21 52 192 84 266 5 11
20 53 35 93 14 39 38 105 52 145 15 39 30 81 34 92 4 11 15 40 24 65 8 25 21
59 27 75 7 17 13 32 14 35 12 48 -7 45 294 45 l280 0 27 -75 c15 -41 32 -86
37 -100 6 -14 11 -27 12 -30 1 -3 4 -12 8 -20 3 -8 27 -73 52 -145 26 -71 54
-145 62 -164 8 -18 19 -45 23 -60 5 -14 24 -70 43 -125 20 -56 33 -110 31
-125 -6 -33 -39 -61 -71 -61 -15 0 -23 -5 -21 -12 3 -9 47 -14 154 -18 216 -7
324 -2 324 16 0 8 -10 14 -22 14 -37 0 -85 36 -113 84 -14 24 -51 111 -81 193
-31 81 -58 155 -61 163 -4 8 -7 17 -8 20 -1 3 -5 12 -8 20 -4 8 -25 67 -47
130 -23 63 -45 124 -50 135 -5 11 -45 119 -90 240 -45 121 -87 236 -95 255 -7
19 -32 87 -55 150 -23 63 -54 144 -67 180 -46 120 -52 135 -59 160 -5 14 -9
27 -9 30 -1 3 -7 19 -14 35 -7 17 -28 73 -47 125 -20 52 -41 109 -47 125 -6
17 -12 33 -12 37 0 4 -5 12 -10 17 -8 8 -24 -25 -54 -107z m9 -365 c0 -7 86
-245 117 -327 4 -8 7 -17 8 -20 1 -3 5 -12 8 -20 28 -67 85 -235 81 -240 -3
-3 -113 -5 -244 -5 l-238 -1 19 51 c73 202 89 247 98 262 5 10 10 23 11 28 1
6 7 21 12 35 13 36 52 145 79 219 20 57 24 62 36 45 7 -10 13 -22 13 -27z"/>
<path d="M160 10110 c-29 -7 -26 -23 7 -34 15 -5 33 -14 39 -21 15 -15 44 -72
50 -98 3 -12 6 -420 6 -907 1 -867 0 -887 -19 -931 -23 -51 -58 -89 -83 -89
-9 0 -17 -7 -17 -15 0 -17 -2 -17 392 -15 350 1 444 14 587 83 71 34 88 46
154 106 107 96 164 252 159 429 -4 99 -12 144 -39 212 -66 162 -185 270 -359
325 -58 18 -67 24 -50 29 65 21 185 127 238 211 52 81 68 141 68 240 0 119
-25 191 -99 282 -56 68 -197 151 -289 169 -11 2 -31 6 -45 9 -14 3 -46 8 -73
11 -59 8 -598 11 -627 4z m613 -119 c27 -6 70 -22 95 -35 56 -29 142 -102 142
-122 0 -8 4 -14 9 -14 7 0 38 -62 39 -80 0 -3 6 -18 12 -35 32 -79 12 -254
-36 -330 -72 -112 -187 -166 -367 -171 -53 -2 -101 -5 -106 -9 -5 -3 -12 -1
-15 4 -3 5 -15 7 -26 4 -44 -12 -45 -6 -43 399 0 210 2 388 2 394 1 15 230 11
294 -5z m27 -904 c37 -8 135 -41 140 -48 3 -3 16 -10 28 -14 13 -4 53 -35 88
-70 77 -75 124 -168 149 -293 21 -101 12 -232 -18 -286 -6 -12 -10 -24 -9 -28
1 -5 -3 -8 -8 -8 -6 0 -10 -6 -10 -12 -1 -18 -82 -108 -98 -108 -6 0 -12 -4
-12 -9 0 -18 -146 -80 -197 -83 -7 -1 -13 -4 -13 -7 0 -7 -9 -8 -203 -13 -92
-3 -150 -1 -154 6 -10 15 -10 960 0 973 7 9 48 11 155 8 81 -2 154 -6 162 -8z"/>
<path d="M1905 10102 c-8 -20 -7 -22 13 -22 30 0 61 -29 84 -78 l22 -47 1
-887 c1 -967 2 -944 -55 -1009 -16 -17 -31 -30 -34 -30 -24 4 -36 -1 -36 -15
0 -12 12 -15 58 -14 31 1 248 1 482 1 234 -1 496 -1 583 -1 88 0 163 -2 167
-5 19 -12 24 28 25 197 0 132 -3 179 -12 182 -15 6 -19 1 -28 -44 -18 -86 -76
-163 -149 -198 -36 -18 -66 -19 -410 -18 l-371 1 -1 483 c-2 536 -9 487 66
483 19 -1 40 -2 45 -2 333 3 427 2 461 -3 52 -9 111 -57 122 -99 5 -18 15 -33
23 -35 13 -2 15 25 14 190 -1 106 -3 198 -3 205 -3 16 -29 6 -29 -11 0 -32
-27 -73 -66 -101 l-42 -30 -296 -3 -297 -3 0 404 0 405 22 1 c11 1 35 2 51 4
17 1 42 -1 58 -5 16 -4 27 -3 27 3 0 6 5 7 11 3 6 -3 35 -6 65 -5 53 1 63 2
107 1 12 0 36 1 52 3 17 1 42 -1 58 -5 16 -4 27 -3 27 3 0 6 5 7 11 3 9 -5 77
-7 132 -3 28 3 111 -12 122 -21 7 -5 14 -7 17 -4 10 9 77 -78 89 -115 13 -41
26 -58 36 -48 9 9 11 275 2 289 -11 18 -1217 17 -1224 0z"/>
<path d="M5789 10110 c-31 -6 -36 -30 -7 -30 39 0 86 -64 94 -129 8 -64 9
-1753 1 -1791 -14 -67 -53 -122 -92 -128 -25 -5 -25 -5 -16 -20 8 -13 41 -14
333 -13 98 1 116 3 112 15 -3 8 -18 17 -33 21 -27 6 -63 61 -77 119 -5 22 -9
813 -5 907 1 15 46 17 506 17 285 0 508 -4 511 -9 9 -14 10 -118 2 -113 -4 3
-4 -5 0 -17 5 -12 6 -40 2 -60 -4 -21 -5 -41 -2 -44 8 -8 5 -142 -3 -156 -5
-8 -4 -10 3 -5 9 5 9 0 3 -17 -6 -14 -7 -28 -4 -31 4 -3 6 -41 5 -84 -1 -42
-2 -103 -3 -134 0 -31 2 -67 6 -79 5 -16 4 -19 -5 -14 -9 6 -11 4 -5 -5 8 -14
8 -106 -1 -154 -12 -67 -52 -119 -93 -120 -8 -1 -15 -9 -17 -18 -2 -15 11 -17
131 -17 73 0 137 -1 142 -2 4 -1 45 -1 91 0 66 1 82 4 82 16 0 8 -7 15 -15 15
-24 0 -52 31 -76 85 l-23 50 -1 870 c-1 1032 -4 1001 91 1041 69 29 28 37
-200 37 -119 0 -219 -3 -222 -6 -9 -9 5 -27 21 -27 45 0 101 -99 96 -170 0 -8
0 -37 0 -65 2 -145 1 -194 -6 -205 -5 -9 -4 -11 3 -6 9 5 9 0 3 -17 -6 -14 -7
-27 -4 -31 8 -8 9 -155 1 -150 -4 3 -4 -5 0 -17 5 -12 6 -40 2 -60 -4 -21 -5
-41 -2 -44 5 -4 5 -24 3 -100 l-1 -25 -512 0 -513 0 1 375 c1 391 6 442 45
484 11 11 31 24 44 27 22 6 36 33 18 35 -38 3 -395 3 -414 -1z"/>
<path d="M11009 10098 c-8 -14 -6 -18 10 -18 33 0 79 -47 95 -98 15 -43 16
-151 16 -942 -1 -823 -2 -896 -18 -924 -9 -17 -20 -32 -24 -34 -5 -2 -8 -10
-8 -18 0 -8 -7 -14 -15 -14 -8 0 -15 -4 -15 -10 0 -5 -9 -10 -20 -10 -11 0
-20 -7 -20 -15 0 -17 -17 -16 300 -15 394 0 514 11 617 56 21 9 44 17 51 18
30 5 145 91 192 144 50 56 104 155 115 209 22 114 25 199 9 286 -21 119 -46
175 -118 263 -70 87 -174 154 -276 179 -3 1 -17 5 -33 9 l-27 8 43 28 c24 15
48 29 54 31 18 7 85 72 124 120 90 110 122 239 92 374 -27 124 -67 185 -170
261 -21 16 -40 32 -43 35 -5 6 -120 53 -155 63 -79 22 -176 28 -484 30 -260 1
-284 0 -292 -16z m626 -106 c69 -19 115 -37 115 -44 0 -5 6 -8 13 -8 19 -1
102 -81 131 -127 14 -24 23 -43 20 -43 -4 0 -1 -6 5 -14 11 -13 20 -41 25 -76
1 -9 4 -20 7 -25 11 -21 1 -142 -15 -199 -18 -60 -50 -112 -96 -154 -34 -31
-142 -84 -178 -87 -16 -1 -33 -4 -38 -7 -5 -3 -70 -4 -144 -4 l-135 1 -1 395
c0 217 1 398 2 401 5 10 246 2 289 -9z m15 -905 c116 -19 204 -63 279 -137 63
-62 111 -149 138 -252 19 -73 23 -252 6 -269 -6 -6 -9 -18 -6 -25 3 -8 1 -14
-5 -14 -5 0 -12 -13 -15 -29 -10 -49 -108 -148 -183 -185 -57 -28 -143 -53
-214 -63 -50 -6 -279 -11 -295 -6 -7 2 -10 173 -9 496 1 270 2 493 3 494 2 3
277 -6 301 -10z"/>
<path d="M14857 10110 c-23 -10 -16 -28 13 -34 31 -6 75 -60 87 -107 3 -13 7
-424 8 -914 1 -854 1 -892 -17 -935 -25 -57 -43 -77 -79 -85 -29 -7 -37 -19
-20 -30 7 -4 335 -6 591 -4 8 1 94 0 190 -1 96 0 254 -1 350 0 l176 0 -1 184
c0 102 -3 188 -7 191 -10 10 -28 -4 -28 -21 0 -8 -9 -40 -20 -71 -25 -71 -98
-145 -157 -160 -23 -6 -191 -10 -400 -10 l-360 -1 0 480 c-1 534 -7 493 71
490 56 -2 57 -2 276 -1 220 1 252 -3 297 -34 30 -20 39 -36 57 -89 3 -10 12
-18 20 -18 14 0 15 10 16 105 0 11 -1 77 -3 147 -1 75 2 128 7 128 6 0 1 6
-10 14 -21 16 -34 6 -34 -29 0 -28 -68 -93 -111 -105 -18 -6 -158 -10 -310
-10 l-276 0 0 404 c0 405 0 405 21 408 11 2 33 1 49 -3 15 -4 27 -4 27 0 0 5
15 5 33 2 17 -4 51 -4 75 -1 23 4 42 4 42 1 0 -6 113 -4 143 3 9 2 17 1 17 -2
0 -8 100 -5 107 2 3 2 18 0 34 -4 18 -5 29 -5 29 1 0 6 4 8 9 5 4 -3 38 -7 74
-10 101 -7 153 -43 185 -128 16 -42 21 -48 40 -48 9 0 9 276 -1 286 -8 8
-1191 12 -1210 4z"/>
<path d="M16594 10111 c-11 -12 -2 -31 16 -31 24 0 56 -33 80 -84 18 -37 19
-77 19 -942 0 -856 -1 -905 -19 -941 -21 -45 -62 -85 -81 -81 -7 2 -15 -5 -17
-14 -3 -16 10 -17 142 -17 79 0 148 -1 153 -2 4 -1 43 -1 86 0 61 1 77 4 77
16 0 9 -9 15 -22 15 -29 0 -76 55 -89 104 -12 43 -20 1839 -8 1858 7 11 82 14
98 4 6 -4 11 -3 11 2 0 6 14 7 33 3 17 -3 48 -5 67 -3 19 1 46 4 60 5 14 1 37
-1 53 -5 16 -4 27 -3 27 3 0 6 5 7 11 3 11 -6 78 -7 144 -1 17 1 42 -1 58 -5
16 -4 27 -3 27 3 0 6 4 8 8 5 4 -2 39 -7 77 -10 97 -8 134 -37 171 -131 4 -11
8 -36 8 -55 1 -24 6 -35 16 -35 21 0 26 61 20 214 l-5 124 -608 1 c-335 1
-611 -1 -613 -3z"/>
</g>
</svg>
