<svg xmlns="http://www.w3.org/2000/svg" width="63.046" height="55.134" viewBox="0 0 63.046 55.134">
  <path id="logos" d="M428.873,95.127l5.251-9.188,5.252,9.188Zm-13.135,0,5.251-9.188,5.254,9.188Zm-13.137,0,5.253-9.188,5.254,9.188Zm-26.269,0,5.251-9.188,5.254,9.188ZM422.3,85.172h10.508l-5.253,9.187Zm-13.135,0h10.508l-5.253,9.187Zm-26.271,0H393.4l-5.252,9.187Zm39.406-1.53,5.254-9.191,5.253,9.191Zm-39.406,0,5.254-9.191,5.252,9.191Zm32.841-9.956h10.506l-5.254,9.188Zm-26.274,0h10.508l-5.253,9.188Zm26.274-1.532,5.251-9.187,5.254,9.187Zm-26.274,0,5.254-9.187,5.253,9.187Zm19.7-9.952h10.508l-5.253,9.188Zm-13.135,0H406.54l-5.253,9.188Zm13.135-1.531,5.254-9.191,5.253,9.191Zm-13.135,0,5.254-9.191,5.253,9.191Zm6.568-9.958h10.508L407.854,59.9Zm0-1.529,5.253-9.191,5.254,9.191Z" transform="translate(-376.331 -39.993)" fill="#998675"/>
</svg>
