<?xml version="1.0" standalone="no"?>
<!DOCTYPE svg PUBLIC "-//W3C//DTD SVG 20010904//EN"
 "http://www.w3.org/TR/2001/REC-SVG-20010904/DTD/svg10.dtd">
<svg version="1.0" xmlns="http://www.w3.org/2000/svg"
 width="1008.000000pt" height="1008.000000pt" viewBox="0 0 1008.000000 1008.000000"
 preserveAspectRatio="xMidYMid meet">
<metadata>
Created by potrace 1.11, written by Peter Selinger 2001-2013
</metadata>
<g transform="translate(0.000000,1008.000000) scale(0.100000,-0.100000)"
fill="#000000" stroke="none">
<path d="M5009 9380 c-12 -27 -26 -50 -31 -50 -4 0 -8 -4 -8 -10 0 -5 -34 -69
-76 -142 -89 -154 -109 -189 -138 -241 -11 -21 -25 -46 -31 -55 -74 -126 -105
-183 -105 -192 0 -5 -4 -10 -10 -10 -5 0 -10 -4 -10 -9 0 -5 -56 -106 -125
-226 -69 -119 -125 -218 -125 -220 0 -1 -31 -56 -70 -121 -38 -66 -70 -122
-70 -126 0 -4 376 -7 835 -7 l835 0 -16 32 c-9 18 -33 61 -54 97 -21 36 -47
81 -57 100 -11 19 -91 159 -178 310 -86 151 -171 300 -187 330 -17 30 -34 60
-38 65 -4 6 -20 33 -35 60 -53 93 -102 180 -122 215 -11 19 -47 82 -81 140
-33 57 -65 106 -70 108 -5 1 -20 -20 -33 -48z"/>
<path d="M4210 7724 c0 -4 39 -75 108 -194 30 -52 66 -115 80 -140 14 -25 36
-62 49 -82 12 -21 23 -40 23 -42 0 -3 23 -43 50 -90 28 -47 50 -89 50 -95 0
-6 4 -11 9 -11 5 0 13 -10 17 -22 3 -12 22 -45 40 -74 19 -29 34 -55 34 -58 0
-3 29 -55 65 -116 68 -116 76 -130 172 -300 33 -58 72 -125 87 -150 15 -25 29
-53 33 -62 7 -22 33 -24 33 -3 0 8 4 15 10 15 5 0 9 3 8 8 -3 9 63 126 74 130
4 2 8 11 8 21 0 9 9 27 20 39 11 12 20 28 20 37 0 8 3 15 8 15 4 0 13 15 21
33 8 17 17 34 20 37 6 5 24 36 58 100 10 19 21 37 24 40 3 3 9 12 12 20 4 8
21 38 37 65 16 28 34 59 40 70 5 11 23 43 39 70 16 28 42 73 57 100 14 28 34
61 44 75 9 14 23 40 31 58 8 17 17 32 21 32 5 0 8 5 8 10 0 6 16 35 35 65 19
30 32 55 28 55 -3 0 1 8 9 18 14 15 35 52 94 162 11 19 22 37 27 38 4 2 7 8 7
12 0 5 14 32 30 60 17 28 30 52 30 54 0 2 -376 4 -835 4 -459 0 -835 -2 -835
-4z"/>
<path d="M3893 7428 c-54 -95 -102 -180 -108 -190 -5 -9 -23 -41 -39 -70 -15
-29 -34 -60 -40 -68 -7 -8 -21 -33 -31 -55 -11 -22 -22 -42 -25 -45 -7 -7 -25
-38 -53 -90 -13 -25 -76 -136 -140 -248 -65 -111 -117 -206 -117 -211 0 -5 -4
-11 -8 -13 -4 -1 -37 -55 -72 -118 -35 -63 -72 -128 -83 -144 -13 -18 -16 -30
-9 -35 5 -3 381 -6 834 -5 669 0 822 3 820 14 -2 7 -29 58 -61 114 -32 55 -69
121 -83 146 -14 25 -48 85 -77 133 -28 49 -51 92 -51 97 0 4 -7 13 -15 20 -8
7 -12 16 -9 21 3 5 2 9 -3 9 -4 0 -21 26 -38 58 -16 31 -33 59 -36 62 -3 3
-13 19 -21 35 -45 88 -64 120 -70 123 -5 2 -8 10 -8 18 0 8 -4 14 -10 14 -5 0
-10 6 -10 14 0 7 -9 25 -21 40 -11 14 -17 26 -13 26 4 0 0 8 -8 18 -20 23 -73
117 -67 118 2 1 -3 10 -12 20 -9 11 -60 97 -113 192 -54 94 -99 172 -101 172
-2 0 -47 -78 -102 -172z"/>
<path d="M6050 7528 c-23 -40 -57 -98 -76 -130 -19 -31 -34 -61 -34 -67 0 -6
-4 -11 -8 -11 -4 0 -14 -16 -21 -35 -7 -19 -16 -35 -21 -35 -4 0 -13 -12 -19
-27 -6 -16 -20 -44 -32 -63 -12 -19 -31 -53 -42 -75 -12 -22 -24 -42 -27 -45
-3 -3 -11 -16 -18 -30 -6 -14 -28 -52 -47 -85 -19 -33 -56 -98 -82 -145 -26
-47 -53 -91 -60 -98 -7 -7 -13 -17 -13 -22 0 -5 -20 -43 -45 -84 -25 -42 -45
-81 -45 -86 0 -6 -4 -10 -8 -10 -4 0 -14 -16 -21 -35 -7 -19 -16 -35 -21 -35
-5 0 -11 -9 -15 -19 -3 -11 -29 -59 -57 -108 -69 -118 -78 -136 -73 -142 2 -5
1598 -6 1653 -2 9 1 5 14 -13 44 -14 23 -39 67 -56 97 -16 30 -34 62 -39 70
-18 28 -180 312 -180 316 0 2 -17 32 -38 66 -20 35 -44 77 -52 93 -8 17 -17
32 -20 35 -5 5 -16 24 -57 99 -14 25 -29 51 -33 56 -4 6 -19 30 -32 55 -40 72
-68 120 -108 190 -21 36 -47 81 -57 100 -37 65 -135 235 -138 238 -2 2 -22
-29 -45 -70z"/>
<path d="M3160 5890 c0 -3 47 -88 105 -190 58 -101 105 -188 105 -192 0 -5 5
-8 10 -8 6 0 10 -4 10 -9 0 -5 32 -64 70 -131 39 -67 70 -126 70 -131 0 -5 3
-9 8 -9 4 0 12 -10 18 -23 23 -49 59 -112 67 -115 4 -2 7 -9 7 -16 0 -8 9 -25
21 -40 11 -14 17 -26 12 -26 -4 0 -3 -4 2 -8 10 -6 43 -63 132 -222 14 -25 41
-71 59 -103 19 -32 34 -62 34 -67 0 -4 4 -10 8 -12 5 -1 27 -38 51 -81 23 -42
46 -75 51 -72 4 3 17 22 28 42 46 89 57 108 63 113 4 3 17 25 29 50 12 25 25
47 29 50 3 3 15 23 27 45 11 22 48 88 82 147 34 59 62 111 62 117 0 5 4 11 8
13 4 2 34 50 66 108 32 58 64 108 70 112 6 4 8 8 3 8 -4 0 3 17 16 38 13 20
35 57 49 82 14 25 44 77 67 117 22 39 50 89 62 110 90 160 113 199 123 205 6
4 8 8 3 8 -4 0 4 18 19 41 14 22 23 43 21 46 -7 6 -1667 9 -1667 3z"/>
<path d="M5308 5892 c-27 -2 -48 -5 -48 -8 0 -5 313 -556 338 -594 9 -14 17
-27 17 -30 0 -3 17 -33 38 -66 20 -34 37 -67 37 -73 0 -6 3 -11 8 -11 4 0 12
-10 18 -23 14 -28 42 -78 181 -320 62 -108 113 -202 113 -207 0 -6 4 -10 9
-10 5 0 11 -8 15 -17 7 -23 42 -83 55 -96 7 -7 14 -2 21 14 6 13 19 38 29 54
16 27 33 56 73 126 7 13 18 27 23 31 6 4 6 8 2 8 -5 0 0 12 11 28 10 15 31 49
47 77 15 27 62 110 105 185 43 75 91 158 106 185 15 28 52 93 82 145 31 52 62
109 70 125 9 17 18 32 21 35 3 3 11 14 17 25 31 58 80 144 153 270 44 77 78
141 77 143 -5 4 -1554 8 -1618 4z"/>
<path d="M2926 5739 c-8 -19 -31 -61 -51 -94 -19 -33 -39 -69 -45 -80 -6 -11
-20 -36 -31 -55 -12 -19 -66 -114 -122 -210 -55 -96 -108 -190 -118 -207 -37
-64 -62 -109 -81 -143 -11 -19 -27 -48 -37 -65 -16 -26 -120 -208 -209 -365
-14 -25 -33 -58 -43 -75 -10 -16 -31 -55 -48 -86 l-30 -57 834 0 c459 0 835 2
835 5 0 9 -35 68 -42 71 -5 2 -8 8 -8 12 0 9 -225 406 -241 426 -5 6 -6 14 -2
17 3 4 2 7 -3 7 -6 0 -21 22 -35 50 -13 27 -27 50 -31 50 -5 0 -8 4 -8 9 0 8
-400 714 -450 795 l-18 30 -16 -35z"/>
<path d="M7121 5732 c-12 -17 -21 -33 -21 -36 0 -3 -24 -46 -54 -96 -30 -49
-51 -90 -48 -90 4 0 3 -4 -3 -8 -5 -4 -16 -17 -22 -29 -7 -13 -19 -33 -25 -45
-7 -13 -17 -26 -23 -30 -5 -4 -6 -8 -1 -8 5 0 4 -6 -2 -12 -11 -14 -134 -225
-190 -328 -19 -36 -43 -77 -54 -92 -10 -14 -18 -29 -18 -32 0 -3 -18 -35 -40
-71 -22 -36 -40 -67 -40 -69 0 -2 -29 -53 -64 -114 -36 -61 -76 -131 -89 -154
-13 -24 -39 -70 -57 -103 -19 -33 -37 -62 -41 -65 -3 -3 -9 -15 -13 -27 l-7
-21 831 0 c580 0 830 4 830 11 0 6 -18 41 -40 78 -22 37 -40 72 -40 78 0 6 -4
11 -10 11 -5 0 -10 5 -10 11 0 6 -31 64 -70 129 -38 65 -70 123 -70 129 0 6
-4 11 -10 11 -5 0 -10 4 -10 9 0 5 -38 76 -85 157 -47 81 -85 148 -85 150 0 1
-34 60 -75 129 -41 70 -75 129 -75 131 0 2 -18 33 -40 69 -22 36 -40 67 -40
69 0 5 -157 276 -163 282 -3 3 -14 -8 -26 -24z"/>
<path d="M2119 4040 c12 -30 205 -365 219 -382 8 -10 11 -18 7 -18 -4 0 -1 -8
7 -17 9 -10 28 -40 42 -68 15 -27 31 -57 36 -65 38 -60 100 -172 100 -180 0
-6 4 -10 9 -10 5 0 11 -8 14 -17 3 -10 24 -49 46 -88 23 -38 47 -81 53 -95 7
-14 15 -27 18 -30 4 -3 24 -36 45 -75 53 -97 63 -115 136 -240 35 -61 70 -123
78 -138 l15 -28 28 46 c15 25 28 49 28 55 0 5 5 10 10 10 6 0 10 4 10 10 0 5
23 47 50 94 28 47 50 88 50 92 0 4 6 15 14 23 7 9 27 41 43 71 17 30 40 71 51
90 12 19 27 46 35 60 71 131 283 496 290 501 5 3 8 9 8 13 -2 6 27 59 81 149
15 26 28 50 28 53 0 3 16 30 35 60 19 30 35 58 35 63 0 5 7 14 15 21 8 7 13
16 10 20 -3 5 -1 11 5 15 5 3 10 9 10 14 0 4 -375 7 -834 7 -746 0 -833 -2
-827 -16z"/>
<path d="M6310 4050 c0 -3 36 -68 80 -144 44 -77 80 -141 80 -142 0 -2 25 -44
55 -95 30 -50 55 -94 55 -97 0 -2 20 -38 45 -79 25 -40 45 -75 45 -77 0 -2 23
-42 50 -89 28 -47 50 -90 50 -96 0 -6 5 -11 10 -11 6 0 10 -4 10 -10 0 -5 18
-39 40 -75 22 -36 40 -69 40 -74 0 -5 7 -14 15 -21 8 -7 15 -21 15 -30 0 -10
4 -20 8 -22 5 -1 44 -66 87 -143 44 -77 83 -141 87 -143 5 -2 8 -12 8 -23 0
-10 4 -19 8 -19 5 0 16 -17 26 -37 l18 -37 39 68 c21 37 39 72 39 77 0 5 4 9
9 9 5 0 11 8 14 18 3 9 22 44 41 77 20 33 39 67 43 75 3 8 16 31 28 50 12 19
37 62 55 95 18 33 41 74 51 90 10 17 26 44 35 60 9 17 35 62 58 100 22 39 41
72 41 75 0 3 26 48 56 100 106 180 129 221 129 231 0 5 5 9 10 9 6 0 10 4 10
9 0 5 32 64 70 131 39 67 70 124 70 128 0 3 6 13 14 21 43 48 79 46 -811 46
-458 1 -833 -2 -833 -5z"/>
<path d="M1876 3898 c-34 -66 -82 -148 -94 -160 -7 -7 -12 -16 -12 -20 0 -5
-42 -81 -93 -171 -52 -89 -97 -169 -100 -177 -4 -8 -16 -28 -26 -45 -11 -16
-32 -52 -46 -80 -15 -27 -33 -57 -41 -66 -8 -8 -14 -18 -14 -22 0 -4 -34 -66
-77 -139 -42 -73 -91 -160 -110 -193 -18 -33 -37 -67 -42 -75 -6 -8 -22 -37
-37 -65 -14 -27 -31 -57 -38 -65 -6 -8 -20 -33 -31 -55 -11 -22 -22 -42 -25
-45 -3 -3 -10 -16 -16 -30 l-11 -25 828 0 c455 0 830 3 833 6 4 3 -133 250
-304 549 -170 298 -310 546 -310 550 0 5 -3 10 -7 12 -8 3 -46 69 -68 115 -5
13 -13 23 -17 23 -5 0 -8 4 -8 9 0 10 -96 180 -109 194 -5 5 -16 -7 -25 -25z"/>
<path d="M8177 3909 c-8 -13 -28 -47 -44 -76 -15 -28 -73 -129 -128 -225 -55
-95 -105 -182 -111 -193 -6 -11 -58 -103 -116 -205 -58 -102 -115 -201 -126
-220 -11 -19 -51 -90 -89 -157 -39 -67 -73 -128 -77 -135 -4 -7 -12 -22 -19
-33 -68 -113 -107 -188 -102 -193 7 -7 1644 -11 1658 -4 4 2 4 9 -2 15 -14 18
-71 119 -84 150 -6 15 -15 27 -19 27 -4 0 -8 4 -8 10 0 5 -20 44 -45 86 -25
41 -45 77 -45 79 0 1 -36 64 -80 139 -44 76 -80 139 -80 141 0 2 -20 38 -45
79 -25 42 -45 79 -45 83 0 4 -6 14 -14 22 -7 9 -27 41 -43 71 -59 108 -68 125
-74 130 -3 3 -14 21 -24 40 -28 54 -55 102 -75 135 -10 17 -30 50 -43 75 -14
25 -43 76 -65 114 -40 69 -40 69 -55 45z"/>
<path d="M1132 2222 l-72 -3 24 -42 c13 -23 55 -98 95 -166 39 -68 71 -125 71
-126 0 -2 27 -48 59 -103 32 -55 72 -124 88 -154 33 -58 83 -145 146 -253 23
-38 42 -72 42 -75 1 -3 12 -23 26 -45 13 -22 23 -44 21 -48 -1 -4 5 -10 13
-13 8 -4 15 -13 15 -22 0 -8 6 -23 14 -31 7 -9 27 -41 43 -71 96 -174 176
-309 183 -305 7 4 104 165 105 175 0 3 19 37 42 75 22 39 50 86 61 105 10 19
54 96 97 170 43 74 89 158 104 185 14 28 29 52 32 55 3 3 19 30 36 60 36 66
60 107 102 178 17 29 31 55 31 57 0 2 19 36 43 77 24 40 59 100 77 133 18 33
42 76 53 95 11 19 23 37 27 40 4 3 10 15 14 28 l7 22 -223 0 c-123 1 -466 2
-763 3 -297 1 -573 1 -613 -1z"/>
<path d="M5313 2222 c-37 -2 -53 -7 -53 -17 0 -7 4 -15 8 -17 8 -3 75 -116
126 -213 11 -22 23 -42 26 -45 9 -9 51 -84 63 -112 6 -16 15 -28 19 -28 4 0 8
-4 8 -9 0 -4 23 -47 50 -95 28 -48 50 -91 50 -96 0 -6 5 -10 10 -10 6 0 10 -7
10 -15 0 -8 5 -15 11 -15 5 0 7 -4 4 -10 -3 -5 -1 -10 4 -10 6 0 11 -5 11 -11
0 -6 19 -43 42 -82 63 -107 87 -149 101 -177 6 -14 14 -27 18 -30 3 -3 8 -12
12 -20 3 -8 20 -37 37 -65 16 -27 33 -57 37 -65 4 -8 20 -37 36 -65 17 -27 43
-75 60 -105 16 -30 36 -62 43 -71 8 -9 12 -18 9 -20 -2 -3 6 -18 19 -34 l23
-29 22 39 c12 22 25 47 31 55 5 8 37 65 71 125 34 61 68 120 76 132 7 13 12
24 11 25 -1 2 12 24 30 51 18 26 29 47 25 47 -4 0 -3 4 3 8 6 4 34 50 64 102
30 52 56 97 59 100 3 3 7 10 8 15 1 6 20 41 42 78 23 36 41 71 41 77 0 5 3 10
8 10 4 0 12 10 17 23 15 31 59 111 65 117 3 3 13 21 24 40 44 83 81 148 103
182 13 21 23 41 23 45 0 3 6 14 14 22 7 9 28 43 46 76 17 33 37 66 42 73 6 7
9 15 6 18 -6 5 -1528 11 -1615 6z"/>
<path d="M7413 2222 c-37 -2 -53 -7 -53 -17 0 -8 5 -17 11 -20 5 -4 15 -17 20
-28 5 -12 20 -40 33 -62 13 -22 35 -60 48 -85 14 -25 46 -80 72 -123 25 -43
46 -80 46 -82 0 -3 25 -45 55 -96 30 -50 55 -97 55 -104 0 -8 4 -15 8 -17 5
-1 33 -46 63 -98 30 -52 59 -104 66 -115 7 -11 16 -29 22 -41 5 -11 28 -51 50
-88 23 -36 41 -69 41 -72 0 -3 16 -30 35 -60 19 -30 35 -57 35 -59 0 -9 162
-285 170 -290 7 -4 150 238 150 256 0 5 5 9 10 9 6 0 10 4 10 10 0 5 32 63 70
129 39 66 70 125 70 131 0 5 4 10 9 10 5 0 13 9 16 21 4 11 27 54 51 95 24 41
44 79 44 84 0 6 4 10 8 10 4 0 14 16 21 35 7 19 16 35 21 35 5 0 11 8 15 19 3
10 38 74 77 142 39 68 85 149 102 179 16 30 33 57 38 58 4 2 8 8 8 13 0 5 25
52 55 105 31 53 54 101 53 106 -3 9 -1469 18 -1605 10z"/>
<path d="M7108 2037 c-20 -34 -45 -78 -56 -97 -10 -19 -36 -63 -56 -97 -20
-34 -36 -64 -36 -68 0 -3 -12 -22 -26 -41 -15 -19 -24 -34 -20 -34 3 0 -9 -24
-27 -52 -18 -29 -41 -70 -52 -90 -11 -21 -23 -38 -27 -38 -5 0 -8 -8 -8 -18 0
-10 -5 -23 -10 -28 -14 -14 -98 -161 -105 -185 -4 -11 -10 -19 -15 -19 -5 0
-14 -16 -21 -35 -7 -19 -17 -35 -21 -35 -4 0 -8 -5 -8 -10 0 -6 -21 -45 -46
-88 -49 -83 -50 -85 -104 -182 -20 -36 -65 -113 -98 -172 -34 -60 -62 -110
-62 -113 0 -3 376 -5 836 -5 l835 0 -29 53 c-67 118 -76 134 -100 177 -13 24
-32 56 -41 70 -10 14 -25 41 -35 60 -18 37 -38 72 -46 80 -3 3 -13 21 -24 40
-27 51 -50 91 -244 430 -96 168 -186 325 -200 349 -14 25 -37 65 -52 90 -14
26 -29 53 -33 61 -31 64 -31 64 -69 -3z"/>
<path d="M9231 2087 c-6 -6 -11 -15 -11 -19 0 -5 -31 -63 -70 -129 -38 -66
-70 -124 -70 -129 0 -6 -5 -10 -11 -10 -5 0 -8 -4 -4 -9 3 -5 1 -12 -4 -15 -5
-4 -38 -57 -73 -119 -34 -61 -68 -121 -75 -132 -7 -11 -16 -27 -20 -35 -4 -8
-26 -46 -48 -85 -23 -38 -57 -97 -75 -130 -84 -152 -194 -342 -208 -357 -8
-10 -12 -18 -9 -18 4 0 -10 -28 -31 -62 -62 -103 -114 -199 -110 -204 3 -2
378 -3 835 -2 l830 3 -37 65 c-21 36 -53 92 -70 125 -18 33 -41 72 -51 87 -11
14 -19 28 -19 31 0 3 -21 41 -46 84 -26 43 -58 97 -70 121 -23 41 -62 111 -91
162 -8 14 -23 39 -33 55 -11 17 -23 37 -27 45 -4 8 -64 114 -133 235 -69 121
-129 227 -133 235 -4 8 -16 29 -27 45 -11 17 -26 44 -35 60 -45 89 -63 113
-74 102z"/>
<path d="M831 2068 c-8 -13 -28 -48 -44 -78 -16 -30 -37 -66 -46 -80 -27 -43
-72 -124 -78 -142 -3 -10 -8 -18 -12 -18 -4 0 -13 -16 -21 -35 -8 -19 -17 -35
-22 -35 -4 0 -8 -4 -8 -10 0 -5 -20 -44 -45 -86 -25 -41 -45 -78 -45 -81 0 -3
-10 -19 -22 -36 -12 -17 -23 -38 -25 -46 -1 -8 -5 -17 -10 -20 -7 -5 -22 -30
-57 -96 -6 -11 -13 -22 -16 -25 -3 -3 -11 -16 -18 -30 -6 -14 -28 -52 -47 -85
-19 -33 -40 -72 -46 -87 -6 -16 -15 -28 -20 -28 -5 0 -9 -4 -9 -9 0 -5 -23
-48 -50 -96 -28 -48 -50 -91 -50 -96 0 -5 -3 -9 -7 -9 -5 0 -13 -10 -19 -23
-26 -55 -88 -162 -96 -165 -45 -19 85 -22 831 -22 l839 0 -109 191 c-60 105
-109 194 -109 199 0 5 -3 10 -7 12 -5 2 -21 28 -37 58 -16 30 -32 57 -35 60
-4 3 -12 16 -19 30 -6 14 -25 48 -41 75 -17 28 -38 67 -48 88 -10 20 -21 37
-25 37 -5 0 -8 4 -8 10 0 5 -22 47 -50 94 -27 47 -50 89 -50 95 0 5 -3 11 -7
13 -5 2 -21 28 -37 58 -16 30 -32 57 -36 60 -4 3 -9 10 -11 16 -8 23 -204 364
-209 364 -3 0 -12 -10 -19 -22z"/>
<path d="M5012 2041 c-18 -28 -32 -53 -32 -55 0 -2 -35 -64 -77 -137 -43 -74
-85 -148 -93 -164 -8 -17 -17 -32 -20 -35 -5 -5 -8 -10 -68 -115 -34 -60 -80
-143 -111 -200 -9 -16 -18 -32 -21 -35 -5 -5 -11 -16 -57 -97 -13 -24 -40 -70
-59 -101 -18 -31 -34 -63 -34 -69 0 -7 -4 -13 -9 -13 -5 0 -11 -8 -14 -17 -4
-10 -18 -38 -33 -63 -56 -95 -174 -302 -174 -306 0 -2 376 -4 835 -4 459 0
835 2 835 5 0 3 -10 22 -23 43 -13 20 -30 52 -38 70 -8 17 -17 32 -21 32 -5 0
-8 5 -8 10 0 6 -11 27 -23 48 -13 20 -35 57 -49 82 -14 25 -34 61 -46 81 -11
20 -26 47 -34 60 -7 13 -15 26 -18 29 -3 3 -11 16 -18 30 -6 14 -27 52 -46 85
-20 33 -43 76 -53 95 -9 19 -20 37 -23 40 -11 10 -230 398 -230 409 0 6 -4 11
-9 11 -5 0 -14 12 -20 28 -6 15 -19 41 -30 57 -18 30 -40 68 -90 156 -14 25
-33 57 -42 69 l-15 23 -32 -52z"/>
</g>
</svg>
