<svg xmlns="http://www.w3.org/2000/svg" width="50.901" height="35.649" viewBox="0 0 50.901 35.649">
  <path id="icon" d="M1391.081,1151.984a1.419,1.419,0,0,1-1.37-2.221l9.492-19.422a4.32,4.32,0,0,1,3.539-2.226h35.3a1.421,1.421,0,0,1,1.372,2.226l-9.49,19.422a4.328,4.328,0,0,1-3.542,2.221Zm-2.342-28a2.474,2.474,0,0,1,2.457-2.48h10.817v-1.445a3.7,3.7,0,0,1,1.081-2.627,3.639,3.639,0,0,1,2.606-1.1h6.291a3.707,3.707,0,0,1,3.684,3.722v1.444h10.816a2.479,2.479,0,0,1,2.458,2.482v1.654h-26.207a6.8,6.8,0,0,0-5.742,3.608l-8.261,16.9Zm16.094-4.8a1.247,1.247,0,0,0-.363.874v1.445h8.748v-1.445a1.235,1.235,0,0,0-1.229-1.242h-6.29A1.2,1.2,0,0,0,1404.833,1119.183Z" transform="translate(-1388.739 -1116.335)" fill="#555"/>
</svg>
