<svg xmlns="http://www.w3.org/2000/svg" width="16" height="12" viewBox="0 0 16 12">
  <path id="Email_2" data-name="Email 2" class="cls-1" d="M894,900.268v-6.536L888.753,897Zm-15.873,1.868A1.5,1.5,0,0,0,879.5,903h13a1.5,1.5,0,0,0,1.371-.857,1.386,1.386,0,0,0,.129-0.589l-6.28-3.911L886,898.714l-1.72-1.071L878,901.554A1.4,1.4,0,0,0,878.127,902.136Zm-0.127-8.4v6.536L883.247,897ZM879.5,891a1.5,1.5,0,0,0-1.373.864,1.387,1.387,0,0,0-.127.582l8,4.983,8-4.983a1.4,1.4,0,0,0-.129-0.589A1.5,1.5,0,0,0,892.5,891h-13Z" transform="translate(-878 -891)"/>
</svg>
