<svg xmlns="http://www.w3.org/2000/svg" width="20.316" height="16.562" viewBox="0 0 20.316 16.562" fill="#6b6b6b">
  <path class="cls-1" d="M1012.92,672.169a8.387,8.387,0,0,1-2.4.659,4.188,4.188,0,0,0,1.83-2.315,8.233,8.233,0,0,1-2.64,1.016,4.173,4.173,0,0,0-7.22,2.863,3.756,3.756,0,0,0,.11.953,11.828,11.828,0,0,1-8.6-4.372,4.2,4.2,0,0,0,1.291,5.587,4.142,4.142,0,0,1-1.89-.524v0.053a4.184,4.184,0,0,0,3.346,4.1,4.167,4.167,0,0,1-1.884.072,4.179,4.179,0,0,0,3.9,2.906,8.394,8.394,0,0,1-6.176,1.732,11.859,11.859,0,0,0,18.268-10.025c0-.182-0.01-0.362-0.02-0.541A8.46,8.46,0,0,0,1012.92,672.169Z" transform="translate(-992.594 -670.219)"/>
</svg>
