<?xml version="1.0" encoding="UTF-8"?><!DOCTYPE svg PUBLIC "-//W3C//DTD SVG 1.1//EN" "http://www.w3.org/Graphics/SVG/1.1/DTD/svg11.dtd"><svg xmlns="http://www.w3.org/2000/svg"><symbol id="arrow-down" viewBox="0 0 512 512">
    <path d="M256 512c-68.379 0-132.668-26.629-181.02-74.98C26.63 388.668 0 324.379 0 256S26.629 123.332 74.98 74.98C123.332 26.63 187.621 0 256 0s132.668 26.629 181.02 74.98C485.37 123.332 512 187.621 512 256s-26.629 132.668-74.98 181.02C388.668 485.37 324.379 512 256 512zm0-472C136.898 40 40 136.898 40 256s96.898 216 216 216 216-96.898 216-216S375.102 40 256 40zm138.285 182L366 193.715l-110 110-110-110L117.715 222 256 360.285zm0 0"/>
</symbol><symbol id="arrow-left" viewBox="0 0 512 512">
    <path d="M352 115.4L331.3 96 160 256l171.3 160 20.7-19.3L201.5 256z"/>
</symbol><symbol id="arrow-right" viewBox="0 0 512 512">
    <path d="M160 115.4L180.7 96 352 256 180.7 416 160 396.7 310.5 256z"/>
</symbol><symbol id="cancel" viewBox="0 0 512.001 512.001">
    <path d="M294.111 256.001L504.109 46.003c10.523-10.524 10.523-27.586 0-38.109-10.524-10.524-27.587-10.524-38.11 0L256 217.892 46.002 7.894C35.478-2.63 18.416-2.63 7.893 7.894s-10.524 27.586 0 38.109l209.998 209.998L7.893 465.999c-10.524 10.524-10.524 27.586 0 38.109 10.524 10.524 27.586 10.523 38.109 0L256 294.11l209.997 209.998c10.524 10.524 27.587 10.523 38.11 0 10.523-10.524 10.523-27.586 0-38.109L294.111 256.001z"/>
</symbol><symbol id="facebook" viewBox="0 0 56.693 56.693">
    <path d="M40.43 21.739h-7.645v-5.014c0-1.883 1.248-2.322 2.127-2.322h5.395V6.125l-7.43-.029c-8.248 0-10.125 6.174-10.125 10.125v5.518h-4.77v8.53h4.77v24.137h10.033V30.269h6.77l.875-8.53z"/>
</symbol><symbol id="google-plus" viewBox="0 0 56.693 56.693">
    <path d="M52.218 25.852h-7.512v-7.51c0-.573-.465-1.039-1.037-1.039H41.53a1.04 1.04 0 00-1.041 1.039v7.51h-7.512c-.572 0-1.039.467-1.039 1.041v2.139a1.04 1.04 0 001.039 1.039h7.512v7.514a1.04 1.04 0 001.041 1.039h2.139c.572 0 1.037-.465 1.037-1.039V30.07h7.512a1.04 1.04 0 001.039-1.039v-2.139a1.04 1.04 0 00-1.039-1.04z"/>
    <path d="M26.974 32.438c-1.58-1.119-3.016-2.76-3.041-3.264 0-.918.082-1.357 2.141-2.961 2.662-2.084 4.128-4.824 4.128-7.719 0-2.625-.802-4.957-2.167-6.595h1.059c.219 0 .434-.068.609-.196l2.955-2.141c.367-.263.521-.732.381-1.161a1.042 1.042 0 00-.988-.72H18.835c-1.446 0-2.915.255-4.357.751-4.816 1.661-8.184 5.765-8.184 9.978 0 5.969 4.624 10.493 10.805 10.635a5.623 5.623 0 00-.182 1.396c0 .92.233 1.791.713 2.633h-.17c-5.892 0-11.21 2.891-13.229 7.193-.526 1.119-.794 2.25-.794 3.367a6.33 6.33 0 00.826 3.113c1.269 2.27 3.994 4.031 7.677 4.961 1.901.48 3.944.725 6.065.725 1.906 0 3.723-.246 5.403-.732 5.238-1.521 8.625-5.377 8.625-9.828-.001-4.271-1.374-6.828-5.059-9.435zm-16.691 9.777c0-3.107 3.947-5.832 8.446-5.832h.121c.979.012 1.934.156 2.834.432.309.213.607.416.893.611 2.084 1.42 3.461 2.357 3.844 3.861.09.379.135.758.135 1.125 0 3.869-2.885 5.83-8.578 5.83-4.315 0-7.695-2.646-7.695-6.027zm4.094-29.357c.703-.803 1.624-1.227 2.658-1.227l.117.002c2.921.086 5.716 3.341 6.23 7.256.289 2.192-.199 4.253-1.301 5.509-.705.805-1.613 1.229-2.689 1.229h-.049c-2.861-.088-5.716-3.467-6.227-7.377-.287-2.186.173-4.151 1.261-5.392z"/>
</symbol><symbol id="heart" viewBox="0 -28 512 512">
    <path d="M471.383 44.578C444.879 15.832 408.512 0 368.973 0c-29.555 0-56.621 9.344-80.45 27.77C276.5 37.07 265.605 48.45 256 61.73c-9.602-13.277-20.5-24.66-32.527-33.96C199.648 9.344 172.582 0 143.027 0c-39.539 0-75.91 15.832-102.414 44.578C14.426 72.988 0 111.801 0 153.871c0 43.3 16.137 82.938 50.781 124.742 30.992 37.395 75.535 75.356 127.117 119.313 17.614 15.012 37.579 32.027 58.309 50.152A30.023 30.023 0 00256 455.516c7.285 0 14.316-2.641 19.785-7.43 20.73-18.129 40.707-35.152 58.328-50.172 51.575-43.95 96.117-81.906 127.11-119.305C495.867 236.81 512 197.172 512 153.867c0-42.066-14.426-80.879-40.617-109.289zm0 0"/>
</symbol><symbol id="instagram" viewBox="0 0 56.693 56.693">
    <path d="M43.414 4.831H13c-5.283 0-9.581 4.297-9.581 9.58v30.415c0 5.283 4.298 9.58 9.581 9.58h30.415c5.283 0 9.58-4.297 9.58-9.58V14.41c-.001-5.283-4.298-9.579-9.581-9.579zm2.748 5.713l1.096-.004v8.403l-8.375.027-.029-8.402 7.308-.024zM21.131 24.53c1.588-2.197 4.164-3.638 7.076-3.638s5.488 1.441 7.074 3.638a8.677 8.677 0 011.652 5.088c0 4.811-3.918 8.725-8.727 8.725-4.812 0-8.726-3.914-8.726-8.725a8.683 8.683 0 011.651-5.088zm27.033 20.295a4.754 4.754 0 01-4.75 4.75H13a4.755 4.755 0 01-4.751-4.75V24.53h7.4a13.483 13.483 0 00-.998 5.088c0 7.473 6.08 13.557 13.556 13.557 7.475 0 13.555-6.084 13.555-13.557 0-1.799-.361-3.516-1-5.088h7.402v20.295z"/>
</symbol><symbol id="linkedin" viewBox="0 0 512 512">
    <path d="M130.5 289h53.8v173h-53.8V289zm27-86c17.2 0 31.2 14 31.2 31.2s-14 31.2-31.2 31.2c-17.3 0-31.2-14-31.2-31.2s13.9-31.2 31.2-31.2M218.1 289h51.5v23.7h.7c7.2-13.6 24.7-27.9 50.9-27.9 54.4 0 64.5 35.8 64.5 82.4V462H332v-84.1c0-20.1-.3-45.9-27.9-45.9-28 0-32.2 21.9-32.2 44.4V462h-53.7l-.1-173z"/>
</symbol><symbol id="pinterest" viewBox="0 0 56.693 56.693">
    <path d="M30.374 4.622c-13.586 0-20.437 9.74-20.437 17.864 0 4.918 1.862 9.293 5.855 10.922.655.27 1.242.01 1.432-.715.132-.5.445-1.766.584-2.295.191-.717.117-.967-.412-1.594-1.151-1.357-1.888-3.115-1.888-5.607 0-7.226 5.407-13.695 14.079-13.695 7.679 0 11.898 4.692 11.898 10.957 0 8.246-3.649 15.205-9.065 15.205-2.992 0-5.23-2.473-4.514-5.508.859-3.623 2.524-7.531 2.524-10.148 0-2.34-1.257-4.292-3.856-4.292-3.058 0-5.515 3.164-5.515 7.401 0 2.699.912 4.525.912 4.525l-3.678 15.582c-1.092 4.625-.164 10.293-.085 10.865.046.34.482.422.68.166.281-.369 3.925-4.865 5.162-9.359.351-1.271 2.011-7.859 2.011-7.859.994 1.896 3.898 3.562 6.986 3.562 9.191 0 15.428-8.379 15.428-19.595.001-8.483-7.183-16.382-18.101-16.382z"/>
</symbol><symbol id="play-button" viewBox="0 0 512 512">
    <path d="M256 0C114.833 0 0 114.844 0 256s114.833 256 256 256 256-114.844 256-256S397.167 0 256 0zm101.771 264.969l-149.333 96a10.62 10.62 0 01-5.771 1.698c-1.75 0-3.521-.438-5.104-1.302A10.653 10.653 0 01192 352V160c0-3.906 2.125-7.49 5.563-9.365 3.375-1.854 7.604-1.74 10.875.396l149.333 96c3.042 1.958 4.896 5.344 4.896 8.969s-1.854 7.01-4.896 8.969z"/>
</symbol><symbol id="rss" viewBox="0 0 56.693 56.693">
    <path d="M3.428 31.085c6.19 0 12.009 2.418 16.382 6.816 4.381 4.398 6.793 10.256 6.793 16.492h9.539c0-18.113-14.676-32.848-32.714-32.848v9.54zm.015-16.911c22.061 0 40.01 18.047 40.01 40.231h9.539c0-27.445-22.229-49.77-49.549-49.77v9.539zm13.191 33.567a6.608 6.608 0 01-13.214 0 6.608 6.608 0 0113.214 0z"/>
</symbol><symbol id="search" viewBox="0 0 32 32">
    <path d="M19.427 21.427a8.5 8.5 0 112-2l5.585 5.585c.55.55.546 1.43 0 1.976l-.024.024a1.399 1.399 0 01-1.976 0l-5.585-5.585zM14.5 21a6.5 6.5 0 100-13 6.5 6.5 0 000 13z" fill-rule="evenodd"/>
</symbol><symbol id="share" viewBox="0 0 424.96 424.96">
    <path d="M340.48 300.587c-16.213 0-30.827 6.293-41.92 16.427l-152-88.64c1.173-4.8 1.92-9.813 1.92-14.933s-.747-10.133-1.92-14.933l150.4-87.787c11.413 10.667 26.667 17.28 43.52 17.28 35.307 0 64-28.693 64-64s-28.693-64-64-64-64 28.693-64 64c0 5.12.747 10.133 1.92 14.933L128 166.72c-11.413-10.667-26.667-17.28-43.52-17.28-35.307 0-64 28.693-64 64s28.693 64 64 64c16.853 0 32.107-6.613 43.52-17.28l152 88.64c-1.067 4.48-1.707 9.173-1.707 13.973 0 34.347 27.84 62.187 62.187 62.187s62.187-27.84 62.187-62.187-27.84-62.186-62.187-62.186z"/>
</symbol><symbol id="twitter" viewBox="0 0 56.693 56.693">
    <path d="M52.837 15.065a20.11 20.11 0 01-5.805 1.591 10.125 10.125 0 004.444-5.592 20.232 20.232 0 01-6.418 2.454 10.093 10.093 0 00-7.377-3.192c-5.581 0-10.106 4.525-10.106 10.107 0 .791.089 1.562.262 2.303-8.4-.422-15.848-4.445-20.833-10.56a10.055 10.055 0 00-1.368 5.082c0 3.506 1.784 6.6 4.496 8.412a10.078 10.078 0 01-4.578-1.265l-.001.128c0 4.896 3.484 8.98 8.108 9.91a10.162 10.162 0 01-4.565.172c1.287 4.015 5.019 6.938 9.441 7.019a20.276 20.276 0 01-12.552 4.327c-.815 0-1.62-.048-2.411-.142a28.6 28.6 0 0015.493 4.541c18.591 0 28.756-15.4 28.756-28.756 0-.438-.009-.875-.028-1.309a20.47 20.47 0 005.042-5.23z"/>
</symbol></svg>