<?xml version="1.0" standalone="no"?>
<!DOCTYPE svg PUBLIC "-//W3C//DTD SVG 20010904//EN"
 "http://www.w3.org/TR/2001/REC-SVG-20010904/DTD/svg10.dtd">
<svg version="1.0" xmlns="http://www.w3.org/2000/svg"
 width="82.000000pt" height="82.000000pt" viewBox="0 0 82.000000 82.000000"
 preserveAspectRatio="xMidYMid meet">
<metadata>
Created by potrace 1.11, written by Peter Selinger 2001-2013
</metadata>
<g transform="translate(0.000000,82.000000) scale(0.100000,-0.100000)"
fill="#000000" stroke="none">
<path d="M309 791 c-15 -11 -43 -22 -64 -24 -28 -3 -46 -14 -69 -39 -17 -19
-43 -40 -58 -46 -17 -7 -28 -21 -33 -43 -4 -17 -20 -45 -37 -62 -24 -26 -28
-37 -23 -63 3 -21 -1 -45 -12 -68 -16 -34 -16 -38 0 -72 12 -23 15 -47 11 -69
-5 -27 -1 -37 21 -58 16 -14 23 -27 17 -31 -6 -3 -8 -15 -5 -26 4 -15 -2 -22
-23 -31 l-29 -11 27 -14 c23 -12 26 -18 18 -43 l-8 -28 49 18 c64 25 77 24
100 -5 14 -17 29 -24 55 -24 23 0 44 -8 59 -22 20 -19 30 -21 62 -14 47 9 51
9 86 -1 22 -6 35 -3 57 13 16 12 46 23 67 26 26 2 44 12 57 29 l18 25 56 -19
c70 -24 73 -24 62 6 -8 21 -6 27 18 39 l27 14 -29 11 c-21 9 -27 16 -23 31 3
11 1 23 -5 26 -6 4 1 16 15 30 21 19 25 31 22 66 -2 26 3 51 13 66 13 21 14
29 2 56 -7 17 -14 52 -15 78 -1 38 -7 52 -28 68 -16 13 -27 31 -27 46 0 26
-32 64 -54 64 -8 0 -29 18 -46 40 -26 33 -38 40 -66 40 -20 0 -47 9 -64 21
-22 17 -35 20 -57 13 -31 -9 -55 -8 -93 1 -18 5 -33 0 -51 -14z"/>
</g>
</svg>
