<svg viewBox="0 0 512 512" xmlns="http://www.w3.org/2000/svg"><path d="M376 16H136C69.726 16 16 69.726 16 136v240c0 66.274 53.726 120 120 120h240c66.274 0 120-53.726 120-120V136c0-66.274-53.726-120-120-120zm34.852 331.552l-44.822.631s-9.629 1.904-22.297-6.791c-16.759-11.503-32.571-41.395-44.883-37.496-12.501 3.962-12.104 30.852-12.104 30.852s.107 5.97-2.746 9.028c-3.087 3.334-9.144 4.225-9.144 4.225h-20.054s-44.254 2.439-83.244-38.117c-42.497-44.242-80.041-132.108-80.041-132.108s-2.158-5.799.188-8.591c2.644-3.118 9.84-3.359 9.84-3.359l47.943-.304s4.532.744 7.764 3.114c2.663 1.95 4.152 5.59 4.152 5.59s7.76 19.599 18.016 37.305c20.032 34.604 29.361 42.171 36.181 38.464 9.92-5.412 6.943-48.897 6.943-48.897s.19-15.806-4.991-22.825c-4.008-5.452-11.559-7.044-14.893-7.485-2.707-.354 1.721-6.623 7.469-9.432 8.617-4.211 23.866-4.464 41.864-4.273 14.03.146 18.055 1.025 23.553 2.347 16.529 3.981 10.929 19.384 10.929 56.336 0 11.82-2.144 28.484 6.394 33.995 3.674 2.371 12.669.357 35.134-37.764 10.654-18.072 18.645-39.322 18.645-39.322s1.74-3.774 4.45-5.406c2.786-1.656 6.521-1.15 6.521-1.15l50.426-.296s15.16-1.804 17.615 5.028c2.582 7.168-5.663 23.937-26.282 51.391-33.854 45.083-37.626 40.85-9.521 66.923 26.848 24.901 32.428 37.018 33.328 38.523 11.114 18.418-12.333 19.864-12.333 19.864z"/></svg>