<?xml version="1.0" encoding="UTF-8"?><!DOCTYPE svg PUBLIC "-//W3C//DTD SVG 1.1//EN" "http://www.w3.org/Graphics/SVG/1.1/DTD/svg11.dtd"><svg xmlns="http://www.w3.org/2000/svg"><symbol id="customization"  viewBox="0 0 43.567 43.566">
    <path d="M1132.927,1129.85a4.318,4.318,0,0,0-2.605-3.857,4.633,4.633,0,0,1-2.885-6.976,4.162,4.162,0,0,0-5.46-5.459,4.627,4.627,0,0,1-6.972-2.884,4.164,4.164,0,0,0-7.723,0,4.627,4.627,0,0,1-6.972,2.884,4.161,4.161,0,0,0-5.459,5.459,4.637,4.637,0,0,1-2.885,6.976,4.16,4.16,0,0,0,0,7.718,4.632,4.632,0,0,1,2.885,6.972,4.162,4.162,0,0,0,5.459,5.459,4.63,4.63,0,0,1,6.972,2.89,4.167,4.167,0,0,0,7.723,0,4.626,4.626,0,0,1,6.972-2.89,4.162,4.162,0,0,0,5.46-5.459,4.628,4.628,0,0,1,2.885-6.972A4.327,4.327,0,0,0,1132.927,1129.85Zm-21.783,7.992a7.988,7.988,0,1,1,7.984-7.983A7.984,7.984,0,0,1,1111.144,1137.842Z" transform="translate(-1089.36 -1108.067)"/>
</symbol><symbol id="design" viewBox="0 0 47.6 47.602">
   <path d="M502.011,1119.591l14.268-14.264a1.59,1.59,0,0,1,2.248,2.248l-13.844,13.847-8.576,19.465,3,3,19.468-8.572,13.846-13.845a1.59,1.59,0,1,1,2.249,2.248L520.4,1137.985l-32.867,14.478Zm12.484,12.875a1.6,1.6,0,0,1,0-2.25l13.332-13.332a1.591,1.591,0,0,1,2.25,2.249l-13.332,13.333a1.595,1.595,0,0,1-2.25,0Zm-3.479-3.481a1.591,1.591,0,0,1,0-2.251l13.333-13.332a1.591,1.591,0,0,1,2.25,2.25l-13.333,13.333a1.594,1.594,0,0,1-2.249,0Zm-3.481-3.483a1.59,1.59,0,0,1,0-2.249l13.333-13.331a1.591,1.591,0,0,1,2.25,2.25l-13.333,13.33a1.591,1.591,0,0,1-2.25,0Z" transform="translate(-487.535 -1104.861)"/>
</symbol><symbol id="development" viewBox="0 0 42.874 39.178">
    <path d="M790.413,1140.72l3.985-2.147,17.452,9.411,17.452-9.411,3.985,2.147-21.437,11.563Zm0-8.024,3.985-2.149,17.452,9.41,17.452-9.41,3.985,2.149-21.437,11.557Zm0-8.031,21.437-11.56,21.437,11.56-21.437,11.561Z" transform="translate(-790.413 -1113.106)"/>
</symbol><symbol id="icon-cart" viewBox="0 0 17.991 23.996">
    <path d="M1491,58h-1.5c0-1.657-2.013-3-4.5-3s-4.5,1.344-4.5,3H1479a3,3,0,0,0-3,3V76a3,3,0,0,0,3,3H1491a3,3,0,0,0,3-3V61A3,3,0,0,0,1491,58Zm-6-1.5c1.656,0,3,.464,3,1.5h-6C1482,56.962,1483.343,56.5,1485,56.5Zm7.5,19.5a1.5,1.5,0,0,1-1.5,1.5H1479a1.5,1.5,0,0,1-1.5-1.5V74.5h14.993Zm0-3H1477.5V61a1.5,1.5,0,0,1,1.5-1.5h1.5V64h1.5V59.5h6V64h1.5V59.5h1.5a1.5,1.5,0,0,1,1.5,1.5Z" transform="translate(-1476.003 -54.998)"/>
</symbol><symbol id="icon-play" viewBox="0 0 70.001 70.001">
    <path d="M17.832 65.531a2.06 2.06 0 012.022-3.59 30.924 30.924 0 10-6.7-5.092 2.06 2.06 0 11-2.912 2.913 34.815 34.815 0 117.593 5.769zm11.23-13.9a2.06 2.06 0 01-1.186-1.865V20.241a2.059 2.059 0 013.378-1.582l17.715 14.763a2.06 2.06 0 010 3.164L31.254 51.349a2.061 2.061 0 01-2.192.282zm2.934-6.262l12.437-10.366-12.437-10.365z"/>
</symbol><symbol id="icon-search" viewBox="0 0 23.988 23.989">
    <path id="icon-search" d="M1545.762,77.682l-6.194-6.1a9.8,9.8,0,0,0,2.618-6.658,10.094,10.094,0,1,0-10.094,9.934,10.156,10.156,0,0,0,6.353-2.218l6.218,6.119a.785.785,0,0,0,1.1,0A.758.758,0,0,0,1545.762,77.682Zm-13.669-4.348a8.406,8.406,0,1,1,8.54-8.405A8.473,8.473,0,0,1,1532.093,73.334Z" transform="translate(-1522.001 -54.998)"/>
</symbol><symbol id="left-arrow-angle" viewBox="0 0 30.725 30.725">
    <path d="M24.078 26.457a2.5 2.5 0 01-1.77 4.267 2.497 2.497 0 01-1.768-.731L5.914 15.362 20.543.732a2.499 2.499 0 113.535 3.536L12.984 15.362l11.094 11.095z"/>
</symbol><symbol id="logos" viewBox="0 0 63.046 55.134">
    <path id="logos" d="M428.873,95.127l5.251-9.188,5.252,9.188Zm-13.135,0,5.251-9.188,5.254,9.188Zm-13.137,0,5.253-9.188,5.254,9.188Zm-26.269,0,5.251-9.188,5.254,9.188ZM422.3,85.172h10.508l-5.253,9.187Zm-13.135,0h10.508l-5.253,9.187Zm-26.271,0H393.4l-5.252,9.187Zm39.406-1.53,5.254-9.191,5.253,9.191Zm-39.406,0,5.254-9.191,5.252,9.191Zm32.841-9.956h10.506l-5.254,9.188Zm-26.274,0h10.508l-5.253,9.188Zm26.274-1.532,5.251-9.187,5.254,9.187Zm-26.274,0,5.254-9.187,5.253,9.187Zm19.7-9.952h10.508l-5.253,9.188Zm-13.135,0H406.54l-5.253,9.188Zm13.135-1.531,5.254-9.191,5.253,9.191Zm-13.135,0,5.254-9.191,5.253,9.191Zm6.568-9.958h10.508L407.854,59.9Zm0-1.529,5.253-9.191,5.254,9.191Z" transform="translate(-376.331 -39.993)"/>
</symbol><symbol id="marketing" viewBox="0 0 50.901 35.649">
   <path id="icon" d="M1391.081,1151.984a1.419,1.419,0,0,1-1.37-2.221l9.492-19.422a4.32,4.32,0,0,1,3.539-2.226h35.3a1.421,1.421,0,0,1,1.372,2.226l-9.49,19.422a4.328,4.328,0,0,1-3.542,2.221Zm-2.342-28a2.474,2.474,0,0,1,2.457-2.48h10.817v-1.445a3.7,3.7,0,0,1,1.081-2.627,3.639,3.639,0,0,1,2.606-1.1h6.291a3.707,3.707,0,0,1,3.684,3.722v1.444h10.816a2.479,2.479,0,0,1,2.458,2.482v1.654h-26.207a6.8,6.8,0,0,0-5.742,3.608l-8.261,16.9Zm16.094-4.8a1.247,1.247,0,0,0-.363.874v1.445h8.748v-1.445a1.235,1.235,0,0,0-1.229-1.242h-6.29A1.2,1.2,0,0,0,1404.833,1119.183Z" transform="translate(-1388.739 -1116.335)"/>
</symbol><symbol id="pause-button" viewBox="0 0 45.975 45.975">
    <path d="M13.987 0a5 5 0 00-5 5v35.975c0 2.763 2.238 5 5 5s5-2.238 5-5V5c0-2.762-2.237-5-5-5zM31.987 0a5 5 0 00-5 5v35.975c0 2.762 2.238 5 5 5s5-2.238 5-5V5a5 5 0 00-5-5z"/>
</symbol><symbol id="right-arrow-angle" viewBox="0 0 792.033 792.033">
    <path d="M617.858 370.896L221.513 9.705c-13.006-12.94-34.099-12.94-47.105 0-13.006 12.939-13.006 33.934 0 46.874l372.447 339.438-372.414 339.437c-13.006 12.94-13.006 33.935 0 46.874s34.099 12.939 47.104 0l396.346-361.191c6.932-6.898 9.904-16.043 9.441-25.087.431-9.078-2.54-18.222-9.474-25.154z"/>
</symbol><symbol id="arrow-right" viewBox="0 0 20.997 20.997"> 
    <path id="_01" data-name="01" d="M935.5,4510a10.5,10.5,0,1,0,10.5,10.5A10.5,10.5,0,0,0,935.5,4510Zm3.289,11-4.539,4.539a.7.7,0,0,1-.99-.99l4.047-4.046-4.047-4.047a.7.7,0,0,1,.99-.989l4.539,4.54a.7.7,0,0,1,0,.994Z" transform="translate(-925.001 -4510)" fill="#c7b299"/>
</symbol><symbol id="clients" viewBox="0 0 44 44"> 
   <path d="M559.937,4908.25c5.688,0,10.313-5.629,10.313-12.546s-4.624-12.547-10.312-12.547a9.445,9.445,0,0,0-7.395,3.788,14.013,14.013,0,0,0-2.918,8.759C549.625,4902.622,554.25,4908.25,559.937,4908.25Zm0-22.344c4.169,0,7.563,4.395,7.563,9.8s-3.393,9.8-7.562,9.8-7.562-4.394-7.565-9.8S555.765,4885.906,559.937,4885.906Zm8.661,20.969a1.375,1.375,0,1,0,0,2.75,8.537,8.537,0,0,1,8.527,8.528,1.1,1.1,0,0,1-1.1,1.1H543.848a1.1,1.1,0,0,1-1.1-1.1,8.536,8.536,0,0,1,8.524-8.528,1.375,1.375,0,1,0,0-2.75A11.289,11.289,0,0,0,540,4918.153a3.852,3.852,0,0,0,3.848,3.847h32.175a3.853,3.853,0,0,0,3.851-3.847A11.291,11.291,0,0,0,568.6,4906.875Zm-7.656-25.246a6.046,6.046,0,0,1,3.12-.878c4.169,0,7.562,4.4,7.562,9.8a12.448,12.448,0,0,1-.319,2.828,1.373,1.373,0,0,0,1.023,1.652,1.3,1.3,0,0,0,.315.037,1.376,1.376,0,0,0,1.338-1.06,15.3,15.3,0,0,0,.393-3.457c0-6.918-4.625-12.547-10.312-12.547a8.88,8.88,0,0,0-4.518,1.261,1.375,1.375,0,0,0,1.4,2.368ZM573,4901.375a1.375,1.375,0,1,0,0,2.75,8.385,8.385,0,0,1,8.25,8.618,1.059,1.059,0,0,1-.094.448,1.375,1.375,0,1,0,2.514,1.117,3.845,3.845,0,0,0,.33-1.568A11.136,11.136,0,0,0,573,4901.375Z" transform="translate(-540 -4878)"/>
</symbol><symbol id="coffee" viewBox="0 0 48 43.999"> 
   <path d="M782.043,4920.749a1.242,1.242,0,0,1-1.234,1.25H737.234a1.251,1.251,0,0,1,0-2.5h43.575A1.243,1.243,0,0,1,782.043,4920.749Zm-24.274-20.536a1.222,1.222,0,0,0,1.744-.061,1.263,1.263,0,0,0-.06-1.768c-2.115-2-1.663-6.07.155-8.37,2.467-3.12,3.01-8.684-.155-11.677a1.222,1.222,0,0,0-1.744.062,1.263,1.263,0,0,0,.061,1.768c1.9,1.8,1.858,5.822-.087,8.283a10.17,10.17,0,0,0-2.1,5.947A7.58,7.58,0,0,0,757.769,4900.213Zm26.231-2.6v2.4a6.2,6.2,0,0,1-6.154,6.239h-2.755a13.513,13.513,0,0,1-12.686,9.051h-6.766a13.585,13.585,0,0,1-13.476-13.661v-12.411a1.243,1.243,0,0,1,1.234-1.251h7.915c1.607-2.476,1.535-6.127-.249-7.814a1.263,1.263,0,0,1-.06-1.768,1.222,1.222,0,0,1,1.744-.061c3.164,2.993,2.622,8.557.155,11.677-1.819,2.3-2.271,6.368-.155,8.37a1.263,1.263,0,0,1,.061,1.768,1.222,1.222,0,0,1-1.744.062,7.583,7.583,0,0,1-2.184-5.817,10.407,10.407,0,0,1,.881-3.914h-5.13v11.16a11.1,11.1,0,0,0,11.008,11.159h6.766a11.1,11.1,0,0,0,11.008-11.159v-11.16h-9.278a1.251,1.251,0,0,1,0-2.5h10.512a1.243,1.243,0,0,1,1.234,1.251v2.143h1.965A6.2,6.2,0,0,1,784,4897.614Zm-2.468,0a3.716,3.716,0,0,0-3.686-3.737h-1.965v9.875h1.965a3.716,3.716,0,0,0,3.686-3.737Z" transform="translate(-736 -4878)"/>
</symbol><symbol id="posts" viewBox="0 0 43.992 43.992"> 
   <path d="M967.873,4901.374H954.125a1.375,1.375,0,0,0,0,2.75h13.747a1.375,1.375,0,0,0,0-2.75Zm2.749-8.248H951.376a1.375,1.375,0,1,0,0,2.749h19.246a1.375,1.375,0,1,0,0-2.749ZM961,4878c-12.147,0-22,8.616-22,19.246a18.423,18.423,0,0,0,8.248,15.011V4922l9.636-5.847a25.259,25.259,0,0,0,4.112.348c12.149,0,22-8.617,22-19.247S973.148,4878,961,4878Zm0,35.744a22.226,22.226,0,0,1-4.647-.5l-6.473,3.891.087-6.376c-4.962-2.984-8.214-7.917-8.214-13.507,0-9.11,8.617-16.5,19.247-16.5s19.247,7.386,19.247,16.5S971.629,4913.747,961,4913.747Z" transform="translate(-939.003 -4878.003)"/>
</symbol><symbol id="likes" viewBox="0 0 44 44"> 
   <path d="M1169.25,4878c-.424,0-.847.026-1.268.064-.154.014-.306.036-.459.056-.258.031-.513.07-.768.117q-.282.052-.552.114c-.211.048-.42.1-.63.162s-.4.109-.591.172c-.177.058-.349.127-.524.192a14.2,14.2,0,0,0-1.343.583c-.086.042-.176.081-.26.127-.228.121-.449.255-.671.387-.121.075-.244.145-.365.223-.215.137-.422.285-.628.433-.062.046-.128.086-.192.132a13.736,13.736,0,0,0-22,10.986c0,12.444,8,23.7,21.406,30.113a1.36,1.36,0,0,0,1.188,0c13.4-6.411,21.406-17.668,21.406-30.113A13.765,13.765,0,0,0,1169.25,4878Zm-8.25,41.1c-12.065-5.989-19.25-16.17-19.25-27.347a10.971,10.971,0,0,1,17.19-9.067,13.672,13.672,0,0,0-3.44,9.067,1.375,1.375,0,0,0,2.75,0,10.963,10.963,0,0,1,3.724-8.227c.211-.189.431-.366.654-.537.051-.036.1-.075.152-.113.219-.159.443-.312.673-.454.063-.04.126-.08.191-.117.221-.133.448-.257.678-.373.079-.04.161-.078.242-.117.22-.1.443-.2.67-.292.1-.04.2-.076.3-.113.214-.077.428-.149.646-.213.133-.037.262-.07.395-.1.2-.049.392-.1.594-.14.181-.033.365-.058.548-.083.156-.024.311-.05.47-.066.349-.033.7-.053,1.061-.053a11.012,11.012,0,0,1,11,11C1180.25,4902.927,1173.066,4913.108,1161,4919.1Zm8.25-35.6a1.375,1.375,0,0,0,0,2.75,5.505,5.505,0,0,1,5.5,5.5,1.375,1.375,0,0,0,2.75,0A8.259,8.259,0,0,0,1169.25,4883.5Z" transform="translate(-1139 -4878)"/>
</symbol><symbol id="launch"  viewBox="0 0 53.995 43.992"> 
   <path d="M1385.31,4918.611h-50.619a1.692,1.692,0,0,0,0,3.384h50.619a1.692,1.692,0,0,0,0-3.384Zm-23.623-33.84v-3.384h3.375a1.692,1.692,0,0,0,0-3.384h-10.124a1.692,1.692,0,0,0,0,3.384h3.375s-.012,3.523,0,3.384a27.1,27.1,0,0,0-25.31,27.072v1.692a1.69,1.69,0,0,0,1.688,1.692h50.619a1.691,1.691,0,0,0,1.688-1.692v-1.692A27.1,27.1,0,0,0,1361.688,4884.771Zm-25.309,27.072a23.623,23.623,0,1,1,47.245,0Z" transform="translate(-1333.003 -4878.003)"/>
</symbol><symbol id="arrow"  viewBox="0 0 4.943 7.927"> 
  <path d="M889.951,5686.815l3.834-3.468a.462.462,0,0,0,0-.7l-.021-.012-3.813-3.459a.6.6,0,0,0-.777,0l0,.007a.47.47,0,0,0-.167.354v6.917a.473.473,0,0,0,.173.358h0A.6.6,0,0,0,889.951,5686.815Z" transform="translate(-889.003 -5679.033)"/>
</symbol><symbol id="arrow-posts-right" viewBox="0 0 21.969 21.969"> 
   <path id="right" d="M979.417,5770.434l-4.772-4.773a.736.736,0,0,0-1.04,1.041l4.255,4.255-4.255,4.253a.736.736,0,0,0,1.04,1.041l4.772-4.771a.742.742,0,0,0,0-1.046Zm-3.4-10.408A10.985,10.985,0,1,0,987,5771.011,10.985,10.985,0,0,0,976.012,5760.026Zm0,20.5a9.513,9.513,0,1,1,9.513-9.512A9.525,9.525,0,0,1,976.012,5780.523Z" transform="translate(-965.028 -5760.026)" />
</symbol>
<symbol id="arrow-posts-left" viewBox="0 0 21.969 21.969"> 
   <path id="left" d="M942.583,5770.434l4.772-4.773a.736.736,0,0,1,1.04,1.041l-4.255,4.255,4.255,4.253a.736.736,0,0,1-1.04,1.041l-4.772-4.771a.742.742,0,0,1,0-1.046Zm3.4-10.408A10.985,10.985,0,1,1,935,5771.011,10.985,10.985,0,0,1,945.987,5760.026Zm0,20.5a9.513,9.513,0,1,0-9.513-9.512A9.525,9.525,0,0,0,945.987,5780.523Z" transform="translate(-935.003 -5760.026)" />
</symbol><symbol id="double-arrow-up" viewBox="0 0 30.727 30.727">
    <path d="M2.5,19.393c-0.64,0-1.278-0.244-1.768-0.73c-0.977-0.979-0.977-2.561,0-3.535L15.363,0.498l14.63,14.629c0.978,0.975,0.978,2.559,0,3.535s-2.56,0.979-3.534,0L15.363,7.568L4.267,18.662C3.781,19.148,3.14,19.393,2.5,19.393zM29.994,29.496c0.979-0.977,0.979-2.559,0-3.533l-14.63-14.632l-14.63,14.63c-0.978,0.977-0.978,2.561,0,3.535c0.978,0.977,2.56,0.977,3.535,0L15.363,18.4l11.096,11.096c0.487,0.488,1.129,0.732,1.769,0.732C28.869,30.229,29.506,29.984,29.994,29.496z"/>
</symbol>
</svg>