<svg xmlns="http://www.w3.org/2000/svg" width="25.415" height="14.248" viewBox="0 0 25.415 14.248">
  <path id="twitter" d="M881.776,19.63a13.317,13.317,0,0,0-1.982-2.7,2.507,2.507,0,0,0-3.327.159,16.724,16.724,0,0,0-1.759,1.515l-5.161-2.855v.276l1.482,1.468-1.657-.654,1.075,1.221-1.264-.495.164.321a14.181,14.181,0,0,0-2.374-1.559,17.868,17.868,0,0,0,1.18,1.623l-1.437-.807.86,1.323-1.215-.675,3.878,4.108s-6.909,5.483-12.257-.124c0,0,8.636,10.268,15.758,7.856a13.928,13.928,0,0,0,7.548-7.856,2.737,2.737,0,0,1,.989-.751,7.839,7.839,0,0,0,1.12-.556Zm-2.3.908c-.483,0-.876-.537-.876-1.2s.393-1.2.876-1.2.877.538.877,1.2S879.959,20.538,879.474,20.538Z" transform="translate(-857.982 -15.751)" fill="#fff"/>
</svg>
