<svg version="1.1" viewBox="0 0 512 512"  xml:space="preserve" xmlns="http://www.w3.org/2000/svg" xmlns:xlink="http://www.w3.org/1999/xlink"><g id="_x31_7-vk"><path d="M376,16H136C69.726,16,16,69.726,16,136v240c0,66.274,53.726,120,120,120h240c66.274,0,120-53.726,120-120V136   C496,69.726,442.274,16,376,16z M410.852,347.552l-44.822,0.631c0,0-9.629,1.904-22.297-6.791   c-16.759-11.503-32.571-41.395-44.883-37.496c-12.501,3.962-12.104,30.852-12.104,30.852s0.107,5.97-2.746,9.028   c-3.087,3.334-9.144,4.225-9.144,4.225h-20.054c0,0-44.254,2.439-83.244-38.117c-42.497-44.242-80.041-132.108-80.041-132.108   s-2.158-5.799,0.188-8.591c2.644-3.118,9.84-3.359,9.84-3.359l47.943-0.304c0,0,4.532,0.744,7.764,3.114   c2.663,1.95,4.152,5.59,4.152,5.59s7.76,19.599,18.016,37.305c20.032,34.604,29.361,42.171,36.181,38.464   c9.92-5.412,6.943-48.897,6.943-48.897s0.19-15.806-4.991-22.825c-4.008-5.452-11.559-7.044-14.893-7.485   c-2.707-0.354,1.721-6.623,7.469-9.432c8.617-4.211,23.866-4.464,41.864-4.273c14.03,0.146,18.055,1.025,23.553,2.347   c16.529,3.981,10.929,19.384,10.929,56.336c0,11.82-2.144,28.484,6.394,33.995c3.674,2.371,12.669,0.357,35.134-37.764   c10.654-18.072,18.645-39.322,18.645-39.322s1.74-3.774,4.45-5.406c2.786-1.656,6.521-1.15,6.521-1.15l50.426-0.296   c0,0,15.16-1.804,17.615,5.028c2.582,7.168-5.663,23.937-26.282,51.391c-33.854,45.083-37.626,40.85-9.521,66.923   c26.848,24.901,32.428,37.018,33.328,38.523C434.299,346.106,410.852,347.552,410.852,347.552z"/></g><g id="Layer_1"/></svg>