<svg xmlns="http://www.w3.org/2000/svg" viewBox="0 0 512.001 512.001" style="background:'transparent'"><path d="M437.019 74.982C388.667 26.629 324.38.001 255.999.001S123.333 26.629 74.981 74.982C26.629 123.333 0 187.62 0 256s26.629 132.668 74.981 181.019C123.333 485.372 187.621 512 256.001 512s132.668-26.629 181.019-74.981C485.372 388.668 512.001 324.38 512.001 256s-26.63-132.667-74.982-181.018zm-181.02 406.176C131.848 481.158 30.843 380.152 30.843 256S131.848 30.843 255.999 30.843 481.156 131.849 481.156 256 380.152 481.158 255.999 481.158z"/><path d="M396.853 240.579H115.147c-8.517 0-15.421 6.905-15.421 15.421 0 8.517 6.905 15.421 15.421 15.421h281.706c8.517 0 15.421-6.905 15.421-15.421 0-8.517-6.904-15.421-15.421-15.421zm-20.562-84.819H135.709c-8.517 0-15.421 6.905-15.421 15.421 0 8.517 6.905 15.422 15.421 15.422h240.582c8.517 0 15.422-6.905 15.422-15.422 0-8.516-6.905-15.421-15.422-15.421zm0 169.637H135.709c-8.517 0-15.421 6.905-15.421 15.421 0 8.517 6.905 15.421 15.421 15.421h240.582c8.517 0 15.422-6.905 15.422-15.421 0-8.517-6.905-15.421-15.422-15.421z"/></svg>