<svg height="100" viewBox="0 0 100 100" width="100" xmlns="http://www.w3.org/2000/svg"><circle cx="50" cy="50" fill="#C5232D" r="45"/><path d="M50 29.686c-11.217 0-20.315 9.095-20.315 20.315 0 8.316 5.002 15.464 12.163 18.605-.059-1.417-.011-3.123.352-4.666.392-1.648 2.613-11.068 2.613-11.068s-.648-1.297-.648-3.215c0-3.01 1.747-5.258 3.919-5.258 1.845 0 2.738 1.388 2.738 3.051 0 1.856-1.186 4.634-1.793 7.207-.508 2.158 1.079 3.913 3.206 3.913 3.849 0 6.439-4.942 6.439-10.8 0-4.451-2.996-7.783-8.45-7.783-6.161 0-10.002 4.594-10.002 9.726 0 1.772.521 3.02 1.34 3.984.376.447.426.624.29 1.135-.094.37-.32 1.273-.414 1.628-.136.514-.552.7-1.014.509-2.841-1.159-4.162-4.267-4.162-7.761 0-5.77 4.866-12.693 14.518-12.693 7.757 0 12.862 5.617 12.862 11.639 0 7.969-4.43 13.923-10.963 13.923-2.191 0-4.254-1.185-4.962-2.53 0 0-1.182 4.68-1.43 5.583-.43 1.564-1.271 3.131-2.043 4.351a20.27 20.27 0 005.756.833c11.219 0 20.314-9.095 20.314-20.313 0-11.221-9.095-20.315-20.314-20.315z" fill="#FFF"/></svg>