<svg xmlns="http://www.w3.org/2000/svg" xmlns:xlink="http://www.w3.org/1999/xlink"><defs><symbol viewBox="0 0 512.001 512.001" id="burger">
<g>
	<g>
		<path d="M437.019,74.982C388.667,26.629,324.38,0.001,255.999,0.001S123.333,26.629,74.981,74.982C26.629,123.333,0,187.62,0,256
			s26.629,132.668,74.981,181.019C123.333,485.372,187.621,512,256.001,512s132.668-26.629,181.019-74.981
			C485.372,388.668,512.001,324.38,512.001,256S485.371,123.333,437.019,74.982z M255.999,481.158
			C131.848,481.158,30.843,380.152,30.843,256S131.848,30.843,255.999,30.843S481.156,131.849,481.156,256
			S380.152,481.158,255.999,481.158z" />
	</g>
</g>
<g>
	<g>
		<path d="M396.853,240.579H115.147c-8.517,0-15.421,6.905-15.421,15.421c0,8.517,6.905,15.421,15.421,15.421h281.706
			c8.517,0,15.421-6.905,15.421-15.421C412.274,247.483,405.37,240.579,396.853,240.579z" />
	</g>
</g>
<g>
	<g>
		<path d="M376.291,155.76H135.709c-8.517,0-15.421,6.905-15.421,15.421c0,8.517,6.905,15.422,15.421,15.422h240.582
			c8.517,0,15.422-6.905,15.422-15.422C391.713,162.665,384.808,155.76,376.291,155.76z" />
	</g>
</g>
<g>
	<g>
		<path d="M376.291,325.397H135.709c-8.517,0-15.421,6.905-15.421,15.421c0,8.517,6.905,15.421,15.421,15.421h240.582
			c8.517,0,15.422-6.905,15.422-15.421C391.713,332.301,384.808,325.397,376.291,325.397z" />
	</g>
</g>
<g>
</g>
<g>
</g>
<g>
</g>
<g>
</g>
<g>
</g>
<g>
</g>
<g>
</g>
<g>
</g>
<g>
</g>
<g>
</g>
<g>
</g>
<g>
</g>
<g>
</g>
<g>
</g>
<g>
</g>
</symbol><symbol viewBox="0 0 329.26933 329" id="close"><path fill="#fff" d="m194.800781 164.769531 128.210938-128.214843c8.34375-8.339844 8.34375-21.824219 0-30.164063-8.339844-8.339844-21.824219-8.339844-30.164063 0l-128.214844 128.214844-128.210937-128.214844c-8.34375-8.339844-21.824219-8.339844-30.164063 0-8.34375 8.339844-8.34375 21.824219 0 30.164063l128.210938 128.214843-128.210938 128.214844c-8.34375 8.339844-8.34375 21.824219 0 30.164063 4.15625 4.160156 9.621094 6.25 15.082032 6.25 5.460937 0 10.921875-2.089844 15.082031-6.25l128.210937-128.214844 128.214844 128.214844c4.160156 4.160156 9.621094 6.25 15.082032 6.25 5.460937 0 10.921874-2.089844 15.082031-6.25 8.34375-8.339844 8.34375-21.824219 0-30.164063zm0 0" /></symbol><symbol viewBox="0 0 67 67" id="facebook_rounded">
    <path d="M28.765,50.32h6.744V33.998h4.499l0.596-5.624h-5.095  l0.007-2.816c0-1.466,0.14-2.253,2.244-2.253h2.812V17.68h-4.5c-5.405,0-7.307,2.729-7.307,7.317v3.377h-3.369v5.625h3.369V50.32z   M33,64C16.432,64,3,50.568,3,34C3,17.431,16.432,4,33,4s30,13.431,30,30C63,50.568,49.568,64,33,64z" style="fill-rule:evenodd;clip-rule:evenodd;fill:#537bbd;" />
        </symbol><symbol viewBox="0 0 100 100" id="pinterest_rounded">
    <g>
        <circle cx="50" cy="50" fill="#C5232D" r="45" />
        <path d="M50,29.686c-11.217,0-20.315,9.095-20.315,20.315c0,8.316,5.002,15.464,12.163,18.605   c-0.059-1.417-0.011-3.123,0.352-4.666c0.392-1.648,2.613-11.068,2.613-11.068s-0.648-1.297-0.648-3.215   c0-3.01,1.747-5.258,3.919-5.258c1.845,0,2.738,1.388,2.738,3.051c0,1.856-1.186,4.634-1.793,7.207   c-0.508,2.158,1.079,3.913,3.206,3.913c3.849,0,6.439-4.942,6.439-10.8c0-4.451-2.996-7.783-8.45-7.783   c-6.161,0-10.002,4.594-10.002,9.726c0,1.772,0.521,3.02,1.34,3.984c0.376,0.447,0.426,0.624,0.29,1.135   c-0.094,0.37-0.32,1.273-0.414,1.628c-0.136,0.514-0.552,0.7-1.014,0.509c-2.841-1.159-4.162-4.267-4.162-7.761   c0-5.77,4.866-12.693,14.518-12.693c7.757,0,12.862,5.617,12.862,11.639c0,7.969-4.43,13.923-10.963,13.923   c-2.191,0-4.254-1.185-4.962-2.53c0,0-1.182,4.68-1.43,5.583c-0.43,1.564-1.271,3.131-2.043,4.351   c1.827,0.54,3.757,0.833,5.756,0.833c11.219,0,20.314-9.095,20.314-20.313C70.314,38.78,61.219,29.686,50,29.686z" fill="#FFFFFF" id="pinterest_rounded_Pinterest_1_" />
    </g>
</symbol><symbol viewBox="0 0 512 512" id="twitter">
<path style="fill:#03A9F4;" d="M512,97.248c-19.04,8.352-39.328,13.888-60.48,16.576c21.76-12.992,38.368-33.408,46.176-58.016
	c-20.288,12.096-42.688,20.64-66.56,25.408C411.872,60.704,384.416,48,354.464,48c-58.112,0-104.896,47.168-104.896,104.992
	c0,8.32,0.704,16.32,2.432,23.936c-87.264-4.256-164.48-46.08-216.352-109.792c-9.056,15.712-14.368,33.696-14.368,53.056
	c0,36.352,18.72,68.576,46.624,87.232c-16.864-0.32-33.408-5.216-47.424-12.928c0,0.32,0,0.736,0,1.152
	c0,51.008,36.384,93.376,84.096,103.136c-8.544,2.336-17.856,3.456-27.52,3.456c-6.72,0-13.504-0.384-19.872-1.792
	c13.6,41.568,52.192,72.128,98.08,73.12c-35.712,27.936-81.056,44.768-130.144,44.768c-8.608,0-16.864-0.384-25.12-1.44
	C46.496,446.88,101.6,464,161.024,464c193.152,0,298.752-160,298.752-298.688c0-4.64-0.16-9.12-0.384-13.568
	C480.224,136.96,497.728,118.496,512,97.248z" />
</symbol><symbol viewBox="0 0 112.197 112.197" id="twitter_rounded">
<g>
	<circle style="fill:#55ACEE;" cx="56.099" cy="56.098" r="56.098" />
	<g>
		<path style="fill:#F1F2F2;" d="M90.461,40.316c-2.404,1.066-4.99,1.787-7.702,2.109c2.769-1.659,4.894-4.284,5.897-7.417
			c-2.591,1.537-5.462,2.652-8.515,3.253c-2.446-2.605-5.931-4.233-9.79-4.233c-7.404,0-13.409,6.005-13.409,13.409
			c0,1.051,0.119,2.074,0.349,3.056c-11.144-0.559-21.025-5.897-27.639-14.012c-1.154,1.98-1.816,4.285-1.816,6.742
			c0,4.651,2.369,8.757,5.965,11.161c-2.197-0.069-4.266-0.672-6.073-1.679c-0.001,0.057-0.001,0.114-0.001,0.17
			c0,6.497,4.624,11.916,10.757,13.147c-1.124,0.308-2.311,0.471-3.532,0.471c-0.866,0-1.705-0.083-2.523-0.239
			c1.706,5.326,6.657,9.203,12.526,9.312c-4.59,3.597-10.371,5.74-16.655,5.74c-1.08,0-2.15-0.063-3.197-0.188
			c5.931,3.806,12.981,6.025,20.553,6.025c24.664,0,38.152-20.432,38.152-38.153c0-0.581-0.013-1.16-0.039-1.734
			C86.391,45.366,88.664,43.005,90.461,40.316L90.461,40.316z" />
	</g>
</g>
</symbol></defs></svg>