<?xml version="1.0" standalone="no"?>
<!DOCTYPE svg PUBLIC "-//W3C//DTD SVG 20010904//EN"
 "http://www.w3.org/TR/2001/REC-SVG-20010904/DTD/svg10.dtd">
<svg version="1.0" xmlns="http://www.w3.org/2000/svg"
 width="1280.000000pt" height="1280.000000pt" viewBox="0 0 1280.000000 1280.000000"
 preserveAspectRatio="xMidYMid meet">
<metadata>
Created by potrace 1.11, written by Peter Selinger 2001-2013
</metadata>
<g transform="translate(0.000000,1280.000000) scale(0.100000,-0.100000)"
fill="#000000" stroke="none">
<path d="M1378 12485 c-2 -2 -31 -7 -63 -10 -33 -3 -85 -8 -115 -12 -30 -3
-94 -6 -142 -6 -49 1 -88 -2 -89 -6 0 -3 -2 -78 -4 -166 -4 -178 -10 -261 -31
-398 -3 -20 -7 -47 -9 -60 -6 -42 -16 -102 -20 -117 -2 -8 -7 -31 -10 -50 -17
-102 -63 -282 -127 -505 -22 -77 -44 -153 -48 -170 -5 -16 -24 -79 -43 -140
-110 -347 -133 -422 -169 -545 -21 -74 -54 -196 -72 -270 -30 -116 -42 -173
-71 -320 -9 -44 -26 -154 -30 -190 -2 -19 -8 -66 -12 -105 -10 -87 -10 -507 0
-595 5 -36 13 -92 18 -125 6 -33 13 -76 15 -95 8 -59 53 -230 94 -351 69 -206
189 -452 309 -632 25 -38 53 -80 62 -94 22 -32 57 -77 147 -185 141 -171 351
-367 542 -506 41 -30 78 -58 83 -62 4 -3 -13 -38 -39 -76 -74 -111 -152 -295
-170 -404 -3 -14 -6 -30 -9 -37 -16 -46 -22 -226 -12 -333 10 -95 55 -267 79
-297 15 -19 4 -37 -38 -58 -152 -79 -464 -280 -509 -329 -5 -6 -32 -29 -60
-50 -96 -76 -290 -280 -348 -368 -108 -162 -186 -351 -222 -538 -3 -14 -7 -36
-10 -50 -3 -14 -10 -59 -16 -100 -5 -41 -12 -88 -14 -105 -4 -29 -9 -104 -20
-280 -3 -44 -7 -143 -10 -220 -3 -77 -7 -167 -9 -200 -10 -133 -19 -231 -22
-250 -3 -11 -7 -38 -9 -60 -20 -157 -93 -414 -145 -507 -7 -13 -2 -20 28 -33
20 -10 95 -46 167 -80 296 -142 767 -302 1005 -341 14 -2 45 -8 70 -14 25 -5
67 -12 93 -15 27 -4 58 -8 69 -10 62 -12 194 -19 358 -19 181 0 248 4 359 24
54 9 72 12 136 25 39 8 164 44 190 54 11 5 52 21 91 35 39 15 119 51 178 81
59 30 111 55 115 55 4 0 15 -19 25 -41 30 -68 130 -210 194 -274 86 -87 119
-115 202 -172 177 -118 373 -186 611 -209 82 -8 109 -30 154 -126 180 -384
520 -665 859 -712 93 -13 274 -14 361 -2 73 11 233 52 296 76 119 47 231 135
290 229 16 24 52 66 81 93 29 28 78 74 108 102 30 29 60 55 67 59 7 5 26 -24
54 -80 23 -49 43 -90 44 -93 1 -3 13 -30 28 -60 14 -30 28 -68 31 -85 32 -194
234 -422 485 -547 118 -59 146 -70 211 -87 44 -12 54 -14 138 -30 44 -9 261
-7 297 2 11 3 34 8 50 12 89 21 162 49 259 99 145 76 218 128 300 214 22 23
60 54 84 68 49 29 72 28 144 -5 80 -37 233 -79 338 -94 96 -14 248 -15 310 -2
14 2 39 7 55 11 84 16 206 63 285 108 108 63 145 92 235 182 152 152 229 252
285 369 40 84 45 101 60 230 10 84 51 240 68 257 6 6 16 6 28 -1 26 -14 150
-61 162 -61 5 0 27 -13 49 -29 55 -40 108 -66 173 -85 284 -84 773 10 1079
208 62 40 218 184 262 241 106 141 180 313 205 475 12 80 11 222 -2 297 -20
111 -116 289 -216 395 -28 30 -42 77 -34 113 13 62 23 71 141 135 160 87 273
213 314 350 35 117 34 292 -3 430 -39 150 -136 335 -211 404 -62 57 -97 86
-175 145 -87 65 -367 327 -359 335 3 3 20 8 38 11 19 3 37 8 40 10 4 2 25 6
47 9 45 7 61 10 124 25 120 27 198 39 290 45 90 6 121 11 185 28 22 5 47 11
55 13 21 4 61 20 126 50 198 91 429 321 526 525 52 110 72 196 72 315 0 161
-14 215 -91 370 -51 102 -131 220 -194 285 -113 119 -115 148 -24 285 36 53
65 102 65 109 0 7 7 27 16 44 18 37 52 151 60 202 3 19 9 53 14 75 9 41 6 202
-4 243 -3 12 -8 30 -10 40 -53 205 -234 445 -474 624 -102 77 -180 114 -302
145 -8 2 -51 4 -95 4 -44 0 -118 7 -165 15 -47 8 -115 20 -153 26 -62 10 -67
12 -61 32 4 11 12 24 18 28 6 4 8 8 4 8 -8 0 106 232 124 251 30 32 66 87 89
139 24 52 61 196 64 250 0 14 3 30 6 35 7 13 3 222 -4 260 -4 17 -9 48 -13 70
-8 56 -56 189 -93 262 -78 153 -186 274 -366 410 -64 49 -218 126 -325 163
-100 34 -270 67 -308 59 -77 -16 -150 36 -207 147 -16 32 -33 63 -38 69 -72
101 -100 138 -119 162 -64 76 -235 233 -256 233 -7 0 -12 3 -12 8 0 8 -31 27
-125 77 -188 102 -392 152 -600 148 -104 -1 -128 -4 -221 -23 -127 -27 -433
-155 -448 -189 -7 -16 -146 -86 -252 -128 -12 -4 -91 144 -99 186 -24 126
-120 265 -255 371 -25 19 -49 39 -55 43 -36 29 -161 94 -250 128 -117 46 -367
43 -587 -6 -239 -53 -447 -171 -565 -318 -59 -74 -156 -77 -219 -5 -88 100
-265 193 -448 233 -60 13 -102 16 -170 12 -104 -7 -97 -6 -196 -36 -180 -55
-378 -197 -495 -354 -25 -34 -53 -71 -62 -81 -9 -11 -36 -58 -59 -105 -79
-156 -110 -274 -107 -416 2 -82 2 -246 0 -267 -2 -28 -14 -10 -22 34 -5 24 -8
45 -9 48 -11 55 -120 380 -154 460 -59 138 -143 283 -227 392 -11 14 -31 41
-45 59 -154 205 -450 460 -683 588 -213 118 -489 232 -667 277 -8 2 -58 15
-110 28 -52 14 -108 27 -125 30 -16 3 -41 8 -55 11 -30 6 -74 14 -115 21 -16
2 -41 6 -55 9 -52 10 -88 15 -180 25 -154 17 -191 20 -270 26 -88 7 -627 14
-632 9z"/>
</g>
</svg>
