<svg xmlns="http://www.w3.org/2000/svg" width="15.992" height="15.992" viewBox="0 0 15.992 15.992">
  <path id="dribbble" d="M942.833,25.611a8,8,0,0,1-.466,1.5,8.1,8.1,0,0,1-.737,1.36,8.229,8.229,0,0,1-.976,1.182,8.034,8.034,0,0,1-2.541,1.713,7.983,7.983,0,0,1-7.585-.738,8.117,8.117,0,0,1-1.182-.975,8.225,8.225,0,0,1-.976-1.182,8.1,8.1,0,0,1-.737-1.36,8.014,8.014,0,0,1,0-6.225,8.141,8.141,0,0,1,.737-1.359,8.066,8.066,0,0,1,2.158-2.158,7.992,7.992,0,0,1,8.945,0,8,8,0,0,1,2.9,3.517,8.033,8.033,0,0,1,.466,4.724Zm-4.044,3.9a6.688,6.688,0,0,0,2.378-2.91,6.667,6.667,0,0,0,.39-1.257c.021-.1.031-.2.046-.307-.055-.016-.131-.036-.215-.058l-.04-.01c-.193-.048-.448-.1-.755-.155h0a9.818,9.818,0,0,0-3.105-.027A30.274,30.274,0,0,1,938.789,29.515Zm-6.395.652a6.729,6.729,0,0,0,1.256.39,6.771,6.771,0,0,0,2.7,0,6.68,6.68,0,0,0,1.257-.39l.037-.018a28.806,28.806,0,0,0-1.436-5.045l-.044.013a11.452,11.452,0,0,0-1.134.469c-.05.024-.1.046-.152.07-.328.161-.632.331-.914.506l-.157.1c-.273.175-.527.354-.757.534-.036.028-.07.057-.105.085-.233.188-.451.375-.642.559h0c-.195.187-.363.368-.516.542l-.065.073c-.139.162-.26.315-.365.456l-.058.078c-.1.134-.182.259-.248.364l-.031.051c-.062.1-.116.192-.149.255h0c.128.1.256.2.391.293A6.787,6.787,0,0,0,932.395,30.167Zm-4.077-6.382c0,.072-.011.143-.011.215a6.805,6.805,0,0,0,.136,1.348,6.615,6.615,0,0,0,.39,1.257,6.788,6.788,0,0,0,.617,1.137,6.886,6.886,0,0,0,.557.673h0c.045-.072.113-.175.193-.291l.039-.058c.084-.121.187-.26.3-.412l.069-.088c.126-.159.266-.329.426-.509l.074-.081c.174-.192.361-.391.572-.595h0c.206-.2.436-.4.679-.6.037-.03.072-.06.11-.091.238-.19.494-.374.765-.553l.155-.1a9.536,9.536,0,0,1,.885-.5c.047-.023.1-.044.144-.066a8.844,8.844,0,0,1,1.053-.424c.087-.028.176-.049.263-.074-.173-.391-.355-.783-.552-1.169a25.176,25.176,0,0,1-6.506.974h0C928.525,23.785,928.4,23.786,928.318,23.785Zm3.854-5.845a6.672,6.672,0,0,0-3.339,3.455,6.641,6.641,0,0,0-.375,1.2c.072,0,.17,0,.29,0h.008c.246-.005.586-.017,1-.045h0a26.316,26.316,0,0,0,4.232-.629h0q.311-.073.628-.157A41.529,41.529,0,0,0,932.172,17.94Zm6.57.51a6.718,6.718,0,0,0-5.092-1.007c-.057.012-.112.03-.169.043a35.124,35.124,0,0,1,2.455,3.851h0c.267-.1.516-.206.75-.315l.014-.007A7.46,7.46,0,0,0,939.413,19,6.832,6.832,0,0,0,938.742,18.45Zm2.815,4.2a6.686,6.686,0,0,0-.39-1.256,6.79,6.79,0,0,0-.617-1.137c-.112-.165-.254-.306-.38-.461a8.865,8.865,0,0,1-2.886,2.184l-.054.027c-.241.12-.493.235-.767.347.161.329.316.663.46,1,.051.12.094.236.143.355.243-.031.485-.051.725-.066l.121-.006q.307-.016.6-.019h.1c.227,0,.449,0,.663.013l.047,0c.193.009.379.021.557.035l.127.01c.174.015.341.031.5.049l.031,0c.166.019.316.039.456.059l.1.015.282.045.069.012.243.045h0A6.844,6.844,0,0,0,941.557,22.651Z" transform="translate(-927.004 -16.004)" fill="#fff"/>
</svg>
